%TF.GenerationSoftware,KiCad,Pcbnew,9.0.2*%
%TF.CreationDate,2025-07-02T03:30:09+03:00*%
%TF.ProjectId,solder submission,736f6c64-6572-4207-9375-626d69737369,rev?*%
%TF.SameCoordinates,Original*%
%TF.FileFunction,Copper,L1,Top*%
%TF.FilePolarity,Positive*%
%FSLAX46Y46*%
G04 Gerber Fmt 4.6, Leading zero omitted, Abs format (unit mm)*
G04 Created by KiCad (PCBNEW 9.0.2) date 2025-07-02 03:30:09*
%MOMM*%
%LPD*%
G01*
G04 APERTURE LIST*
G04 Aperture macros list*
%AMRoundRect*
0 Rectangle with rounded corners*
0 $1 Rounding radius*
0 $2 $3 $4 $5 $6 $7 $8 $9 X,Y pos of 4 corners*
0 Add a 4 corners polygon primitive as box body*
4,1,4,$2,$3,$4,$5,$6,$7,$8,$9,$2,$3,0*
0 Add four circle primitives for the rounded corners*
1,1,$1+$1,$2,$3*
1,1,$1+$1,$4,$5*
1,1,$1+$1,$6,$7*
1,1,$1+$1,$8,$9*
0 Add four rect primitives between the rounded corners*
20,1,$1+$1,$2,$3,$4,$5,0*
20,1,$1+$1,$4,$5,$6,$7,0*
20,1,$1+$1,$6,$7,$8,$9,0*
20,1,$1+$1,$8,$9,$2,$3,0*%
G04 Aperture macros list end*
%TA.AperFunction,SMDPad,CuDef*%
%ADD10R,1.270000X5.080000*%
%TD*%
%TA.AperFunction,SMDPad,CuDef*%
%ADD11C,17.800000*%
%TD*%
%TA.AperFunction,ComponentPad*%
%ADD12R,1.800000X1.800000*%
%TD*%
%TA.AperFunction,ComponentPad*%
%ADD13C,1.800000*%
%TD*%
%TA.AperFunction,ComponentPad*%
%ADD14C,2.000000*%
%TD*%
%TA.AperFunction,ComponentPad*%
%ADD15R,1.100000X1.800000*%
%TD*%
%TA.AperFunction,ComponentPad*%
%ADD16RoundRect,0.275000X0.275000X0.625000X-0.275000X0.625000X-0.275000X-0.625000X0.275000X-0.625000X0*%
%TD*%
%TA.AperFunction,ComponentPad*%
%ADD17C,1.600000*%
%TD*%
%TA.AperFunction,ComponentPad*%
%ADD18RoundRect,0.250000X0.550000X-0.550000X0.550000X0.550000X-0.550000X0.550000X-0.550000X-0.550000X0*%
%TD*%
%TA.AperFunction,ComponentPad*%
%ADD19RoundRect,0.250000X-0.550000X-0.550000X0.550000X-0.550000X0.550000X0.550000X-0.550000X0.550000X0*%
%TD*%
%TA.AperFunction,ViaPad*%
%ADD20C,0.600000*%
%TD*%
%TA.AperFunction,Conductor*%
%ADD21C,0.200000*%
%TD*%
G04 APERTURE END LIST*
D10*
%TO.P,BT1,1,+*%
%TO.N,+3V*%
X132985000Y-98000000D03*
X111015000Y-98000000D03*
D11*
%TO.P,BT1,2,-*%
%TO.N,Net-(BT1--)*%
X122000000Y-98000000D03*
%TD*%
D12*
%TO.P,D1,1,K*%
%TO.N,Net-(D1-K)*%
X119000000Y-150000000D03*
D13*
%TO.P,D1,2,A*%
%TO.N,Net-(D1-A)*%
X116460000Y-150000000D03*
%TD*%
D14*
%TO.P,SW1,1,1*%
%TO.N,GND*%
X125000000Y-85000000D03*
X118500000Y-85000000D03*
%TO.P,SW1,2,2*%
%TO.N,Net-(BT1--)*%
X125000000Y-80500000D03*
X118500000Y-80500000D03*
%TD*%
D12*
%TO.P,D2,1,K*%
%TO.N,Net-(D2-K)*%
X129000000Y-150000000D03*
D13*
%TO.P,D2,2,A*%
%TO.N,Net-(D2-A)*%
X126460000Y-150000000D03*
%TD*%
D15*
%TO.P,Q1,1,C*%
%TO.N,Net-(D1-K)*%
X131000000Y-136400000D03*
D16*
%TO.P,Q1,2,B*%
%TO.N,Net-(Q1-B)*%
X129730000Y-134330000D03*
%TO.P,Q1,3,E*%
%TO.N,GND*%
X128460000Y-136400000D03*
%TD*%
D17*
%TO.P,R1,1*%
%TO.N,+3V*%
X112870000Y-115750000D03*
%TO.P,R1,2*%
%TO.N,Net-(D1-A)*%
X112870000Y-123370000D03*
%TD*%
%TO.P,R4,1*%
%TO.N,+3V*%
X118000000Y-122000000D03*
%TO.P,R4,2*%
%TO.N,Net-(D2-A)*%
X125620000Y-122000000D03*
%TD*%
%TO.P,R3,1*%
%TO.N,+3V*%
X117000000Y-129000000D03*
%TO.P,R3,2*%
%TO.N,Net-(Q1-B)*%
X124620000Y-129000000D03*
%TD*%
D15*
%TO.P,Q2,1,C*%
%TO.N,Net-(D2-K)*%
X131000000Y-122400000D03*
D16*
%TO.P,Q2,2,B*%
%TO.N,Net-(Q2-B)*%
X129730000Y-120330000D03*
%TO.P,Q2,3,E*%
%TO.N,GND*%
X128460000Y-122400000D03*
%TD*%
D18*
%TO.P,C2,1*%
%TO.N,Net-(Q1-B)*%
X121000000Y-137402651D03*
D17*
%TO.P,C2,2*%
%TO.N,Net-(D2-K)*%
X121000000Y-132402651D03*
%TD*%
%TO.P,R2,1*%
%TO.N,+3V*%
X118000000Y-117000000D03*
%TO.P,R2,2*%
%TO.N,Net-(Q2-B)*%
X125620000Y-117000000D03*
%TD*%
D19*
%TO.P,C1,1*%
%TO.N,Net-(D1-K)*%
X123000000Y-109000000D03*
D17*
%TO.P,C1,2*%
%TO.N,Net-(Q2-B)*%
X128000000Y-109000000D03*
%TD*%
D20*
%TO.N,GND*%
X132000000Y-125000000D03*
%TD*%
D21*
%TO.N,Net-(BT1--)*%
X117199000Y-93199000D02*
X117199000Y-83801000D01*
X117199000Y-83801000D02*
X118500000Y-82500000D01*
X118500000Y-80500000D02*
X125000000Y-80500000D01*
X118500000Y-82500000D02*
X118500000Y-80500000D01*
X122000000Y-98000000D02*
X117199000Y-93199000D01*
%TO.N,+3V*%
X111015000Y-98000000D02*
X111015000Y-103145000D01*
X127000000Y-79000000D02*
X118000000Y-79000000D01*
X127000000Y-86832876D02*
X127000000Y-79000000D01*
X111015000Y-98000000D02*
X112262564Y-96752436D01*
X118000000Y-122000000D02*
X118000000Y-117000000D01*
X116798000Y-87202000D02*
X116798000Y-80202000D01*
X132985000Y-92817876D02*
X127000000Y-86832876D01*
X132985000Y-98000000D02*
X132985000Y-92817876D01*
X117000000Y-124620000D02*
X118000000Y-122000000D01*
X112262564Y-96752436D02*
X112262564Y-91737436D01*
X112262564Y-91737436D02*
X116798000Y-87202000D01*
X116798000Y-80202000D02*
X118000000Y-79000000D01*
X117000000Y-129000000D02*
X117000000Y-124620000D01*
X111015000Y-103145000D02*
X112870000Y-105000000D01*
X112870000Y-105000000D02*
X112870000Y-115750000D01*
%TO.N,Net-(Q2-B)*%
X125620000Y-117000000D02*
X128000000Y-114620000D01*
X128000000Y-114620000D02*
X128000000Y-109000000D01*
%TO.N,Net-(D1-K)*%
X121375000Y-145375000D02*
X121250000Y-145500000D01*
X125000000Y-141750000D02*
X121375000Y-145375000D01*
X120370000Y-109000000D02*
X123000000Y-109000000D01*
X115410000Y-137910000D02*
X115410000Y-113960000D01*
X115410000Y-137910000D02*
X121375000Y-143875000D01*
X121250000Y-145500000D02*
X121250000Y-146500000D01*
X120000000Y-147750000D02*
X120000000Y-149000000D01*
X121375000Y-143875000D02*
X121375000Y-145375000D01*
X125000000Y-140000000D02*
X127000000Y-140000000D01*
X125000000Y-140000000D02*
X125000000Y-141750000D01*
X127000000Y-140000000D02*
X131000000Y-136000000D01*
X120000000Y-149000000D02*
X119000000Y-150000000D01*
X121250000Y-146500000D02*
X120000000Y-147750000D01*
X115410000Y-113960000D02*
X120370000Y-109000000D01*
%TO.N,Net-(Q1-B)*%
X126000000Y-130380000D02*
X124620000Y-129000000D01*
X127000000Y-134250000D02*
X127480000Y-134730000D01*
X127480000Y-134730000D02*
X129730000Y-134730000D01*
X126000000Y-133250000D02*
X126000000Y-130380000D01*
X123847349Y-137402651D02*
X127000000Y-134250000D01*
X121000000Y-137402651D02*
X123847349Y-137402651D01*
X127000000Y-134250000D02*
X126000000Y-133250000D01*
%TO.N,Net-(D2-K)*%
X130000000Y-145500000D02*
X133000000Y-142500000D01*
X121000000Y-132402651D02*
X121000000Y-131062950D01*
X129000000Y-150000000D02*
X128000000Y-149000000D01*
X133000000Y-128000000D02*
X131000000Y-126000000D01*
X121000000Y-131062950D02*
X125562950Y-126500000D01*
X128750000Y-145500000D02*
X130000000Y-145500000D01*
X130500000Y-126500000D02*
X131000000Y-126000000D01*
X131000000Y-126000000D02*
X131000000Y-122000000D01*
X128000000Y-146250000D02*
X128750000Y-145500000D01*
X128000000Y-149000000D02*
X128000000Y-146250000D01*
X133000000Y-142500000D02*
X133000000Y-128000000D01*
X125562950Y-126500000D02*
X130500000Y-126500000D01*
%TO.N,Net-(D1-A)*%
X118710000Y-142250000D02*
X118710000Y-142500000D01*
X112870000Y-123370000D02*
X112870000Y-137910000D01*
X118210000Y-143000000D02*
X118210000Y-148250000D01*
X118210000Y-148250000D02*
X116460000Y-150000000D01*
X118710000Y-142500000D02*
X118210000Y-143000000D01*
X112870000Y-137910000D02*
X114370000Y-137910000D01*
X114370000Y-137910000D02*
X118710000Y-142250000D01*
%TO.N,GND*%
X125000000Y-85000000D02*
X118500000Y-85000000D01*
X132000000Y-125000000D02*
X132750000Y-124250000D01*
X126500000Y-87000000D02*
X126500000Y-86500000D01*
X126500000Y-86500000D02*
X125000000Y-85000000D01*
X132750000Y-124250000D02*
X132750000Y-105750000D01*
X132000000Y-92500000D02*
X126500000Y-87000000D01*
X132750000Y-105750000D02*
X132000000Y-105000000D01*
X132000000Y-105000000D02*
X132000000Y-92500000D01*
%TD*%
%TA.AperFunction,Conductor*%
%TO.N,GND*%
G36*
X123612971Y-81120185D02*
G01*
X123656416Y-81168203D01*
X123716657Y-81286433D01*
X123855483Y-81477510D01*
X124022490Y-81644517D01*
X124213567Y-81783343D01*
X124241933Y-81797796D01*
X124424003Y-81890566D01*
X124424005Y-81890566D01*
X124424008Y-81890568D01*
X124475304Y-81907235D01*
X124648631Y-81963553D01*
X124881903Y-82000500D01*
X124881908Y-82000500D01*
X125118097Y-82000500D01*
X125351368Y-81963553D01*
X125380563Y-81954067D01*
X125575992Y-81890568D01*
X125786433Y-81783343D01*
X125977510Y-81644517D01*
X126144517Y-81477510D01*
X126175182Y-81435302D01*
X126230511Y-81392637D01*
X126300125Y-81386658D01*
X126361920Y-81419263D01*
X126396277Y-81480102D01*
X126399500Y-81508188D01*
X126399500Y-84010668D01*
X126379815Y-84077707D01*
X126327011Y-84123462D01*
X126265772Y-84134286D01*
X126222658Y-84130893D01*
X125523787Y-84829765D01*
X125512518Y-84787708D01*
X125440110Y-84662292D01*
X125337708Y-84559890D01*
X125212292Y-84487482D01*
X125170234Y-84476212D01*
X125869105Y-83777340D01*
X125869104Y-83777338D01*
X125786174Y-83717087D01*
X125575802Y-83609897D01*
X125351247Y-83536934D01*
X125351248Y-83536934D01*
X125118052Y-83500000D01*
X124881948Y-83500000D01*
X124648752Y-83536934D01*
X124424197Y-83609897D01*
X124213830Y-83717084D01*
X124130894Y-83777340D01*
X124829766Y-84476212D01*
X124787708Y-84487482D01*
X124662292Y-84559890D01*
X124559890Y-84662292D01*
X124487482Y-84787708D01*
X124476212Y-84829766D01*
X123777340Y-84130894D01*
X123717084Y-84213830D01*
X123609897Y-84424197D01*
X123536934Y-84648752D01*
X123500000Y-84881947D01*
X123500000Y-85118052D01*
X123536934Y-85351247D01*
X123609897Y-85575802D01*
X123717087Y-85786174D01*
X123777338Y-85869104D01*
X123777340Y-85869105D01*
X124476212Y-85170233D01*
X124487482Y-85212292D01*
X124559890Y-85337708D01*
X124662292Y-85440110D01*
X124787708Y-85512518D01*
X124829765Y-85523787D01*
X124130893Y-86222658D01*
X124213828Y-86282914D01*
X124424197Y-86390102D01*
X124648752Y-86463065D01*
X124648751Y-86463065D01*
X124881948Y-86500000D01*
X125118052Y-86500000D01*
X125351247Y-86463065D01*
X125575802Y-86390102D01*
X125786163Y-86282918D01*
X125786169Y-86282914D01*
X125869104Y-86222658D01*
X125869105Y-86222658D01*
X125170233Y-85523787D01*
X125212292Y-85512518D01*
X125337708Y-85440110D01*
X125440110Y-85337708D01*
X125512518Y-85212292D01*
X125523787Y-85170234D01*
X126222658Y-85869105D01*
X126265771Y-85865712D01*
X126334148Y-85880076D01*
X126383905Y-85929128D01*
X126399500Y-85989330D01*
X126399500Y-86746206D01*
X126399499Y-86746224D01*
X126399499Y-86911930D01*
X126399498Y-86911930D01*
X126440423Y-87064661D01*
X126469358Y-87114776D01*
X126469359Y-87114780D01*
X126469360Y-87114780D01*
X126519479Y-87201590D01*
X126519481Y-87201593D01*
X126638349Y-87320461D01*
X126638355Y-87320466D01*
X132348181Y-93030292D01*
X132381666Y-93091615D01*
X132384500Y-93117973D01*
X132384500Y-94839261D01*
X132364815Y-94906300D01*
X132312011Y-94952055D01*
X132273754Y-94962551D01*
X132242516Y-94965909D01*
X132107671Y-95016202D01*
X132107664Y-95016206D01*
X131992455Y-95102452D01*
X131992452Y-95102455D01*
X131906206Y-95217664D01*
X131906202Y-95217671D01*
X131855908Y-95352517D01*
X131849501Y-95412116D01*
X131849501Y-95412123D01*
X131849500Y-95412135D01*
X131849500Y-100587870D01*
X131849501Y-100587876D01*
X131855908Y-100647483D01*
X131906202Y-100782328D01*
X131906206Y-100782335D01*
X131992452Y-100897544D01*
X131992455Y-100897547D01*
X132107664Y-100983793D01*
X132107671Y-100983797D01*
X132242517Y-101034091D01*
X132242516Y-101034091D01*
X132249444Y-101034835D01*
X132302127Y-101040500D01*
X133667872Y-101040499D01*
X133727483Y-101034091D01*
X133862331Y-100983796D01*
X133977546Y-100897546D01*
X134063796Y-100782331D01*
X134114091Y-100647483D01*
X134120500Y-100587873D01*
X134120499Y-95412128D01*
X134114091Y-95352517D01*
X134083210Y-95269722D01*
X134063797Y-95217671D01*
X134063793Y-95217664D01*
X133977547Y-95102455D01*
X133977544Y-95102452D01*
X133862335Y-95016206D01*
X133862328Y-95016202D01*
X133727482Y-94965908D01*
X133727484Y-94965908D01*
X133696244Y-94962550D01*
X133631693Y-94935812D01*
X133591845Y-94878419D01*
X133585500Y-94839261D01*
X133585500Y-93035679D01*
X133605185Y-92968640D01*
X133657989Y-92922885D01*
X133727147Y-92912941D01*
X133790703Y-92941966D01*
X133804518Y-92956007D01*
X134316163Y-93566260D01*
X134827558Y-94176214D01*
X134833985Y-94183880D01*
X134834233Y-94184175D01*
X134835392Y-94186596D01*
X134876532Y-94234627D01*
X134876948Y-94235123D01*
X134918222Y-94284351D01*
X134926127Y-94292528D01*
X135253184Y-94674364D01*
X135281844Y-94738081D01*
X135283007Y-94755026D01*
X135283007Y-111687303D01*
X135282930Y-111691676D01*
X135133552Y-115924929D01*
X135132997Y-115940645D01*
X135130660Y-115949381D01*
X135130677Y-116006360D01*
X135130600Y-116008571D01*
X135128669Y-116063313D01*
X135129445Y-116071404D01*
X135129023Y-116071444D01*
X135130703Y-116086203D01*
X135140226Y-145649747D01*
X135140229Y-145658004D01*
X135135922Y-145690275D01*
X135140248Y-145723598D01*
X135140251Y-145731601D01*
X135140252Y-145731602D01*
X135140261Y-145757228D01*
X135140261Y-145757232D01*
X135146558Y-145780701D01*
X135149761Y-145796866D01*
X135165941Y-145921485D01*
X135166957Y-145935470D01*
X135169247Y-146078784D01*
X135169047Y-146088089D01*
X135159107Y-146256085D01*
X135158749Y-146260674D01*
X135147341Y-146378864D01*
X135147183Y-146379839D01*
X135140182Y-146453023D01*
X135140173Y-146453125D01*
X135133192Y-146525457D01*
X135133162Y-146526412D01*
X135125568Y-146605804D01*
X135120549Y-146630782D01*
X135120146Y-146632077D01*
X135118229Y-146680503D01*
X135117763Y-146687398D01*
X135113150Y-146735643D01*
X135113150Y-146735651D01*
X135113374Y-146736982D01*
X135114988Y-146762413D01*
X135108385Y-146929298D01*
X135107348Y-146955504D01*
X135101864Y-146985530D01*
X135104753Y-147021067D01*
X135104457Y-147028549D01*
X135103344Y-147056687D01*
X135103344Y-147056694D01*
X135108139Y-147077909D01*
X135110781Y-147095192D01*
X135123408Y-147250488D01*
X135124556Y-147264600D01*
X135123529Y-147303550D01*
X135129873Y-147330002D01*
X135130650Y-147339547D01*
X135130651Y-147339554D01*
X135132080Y-147357120D01*
X135132081Y-147357125D01*
X135142936Y-147387530D01*
X135146735Y-147400298D01*
X135183498Y-147553559D01*
X135183497Y-147553559D01*
X135184796Y-147558975D01*
X135191098Y-147601925D01*
X135200103Y-147622788D01*
X135202598Y-147633188D01*
X135205405Y-147644892D01*
X135205408Y-147644899D01*
X135223459Y-147678160D01*
X135228322Y-147688166D01*
X135286571Y-147823118D01*
X135286570Y-147823118D01*
X135289790Y-147830579D01*
X135298839Y-147862435D01*
X135315780Y-147890793D01*
X135319002Y-147898256D01*
X135319006Y-147898264D01*
X135328883Y-147921144D01*
X135328884Y-147921146D01*
X135333997Y-147927609D01*
X135344407Y-147940770D01*
X135353600Y-147954096D01*
X135358570Y-147962415D01*
X135361472Y-147967271D01*
X135370962Y-147986887D01*
X135374797Y-147996996D01*
X135374798Y-147996998D01*
X135397638Y-148028697D01*
X135403475Y-148037577D01*
X135410955Y-148050096D01*
X135423523Y-148071133D01*
X135431275Y-148078657D01*
X135445527Y-148095161D01*
X135449002Y-148099985D01*
X135460283Y-148119024D01*
X135464544Y-148127947D01*
X135464546Y-148127949D01*
X135490541Y-148158362D01*
X135493879Y-148162267D01*
X135520260Y-148198881D01*
X135536523Y-148212157D01*
X135543751Y-148220613D01*
X135543751Y-148220614D01*
X135543756Y-148220619D01*
X135550495Y-148228504D01*
X135563598Y-148247030D01*
X135567841Y-148254373D01*
X135567845Y-148254379D01*
X135597113Y-148283630D01*
X135603716Y-148290768D01*
X135630609Y-148322231D01*
X135630610Y-148322231D01*
X135630613Y-148322235D01*
X135637605Y-148327037D01*
X135655057Y-148341542D01*
X135699639Y-148386098D01*
X135702851Y-148389432D01*
X135739692Y-148429131D01*
X135739695Y-148429133D01*
X135739699Y-148429136D01*
X135747778Y-148434211D01*
X135754529Y-148440958D01*
X135803449Y-148469184D01*
X135823506Y-148481784D01*
X135851281Y-148499233D01*
X135858668Y-148502620D01*
X135858524Y-148502931D01*
X135861034Y-148504026D01*
X135861165Y-148503710D01*
X135868672Y-148506816D01*
X135868676Y-148506819D01*
X135921022Y-148520829D01*
X135925444Y-148522102D01*
X137043384Y-148866831D01*
X137046425Y-148868683D01*
X137106298Y-148886232D01*
X137165917Y-148904616D01*
X137165926Y-148904616D01*
X137166122Y-148904650D01*
X137180251Y-148907906D01*
X138332232Y-149245554D01*
X139574915Y-149611597D01*
X139596625Y-149625575D01*
X139620213Y-149636086D01*
X139625521Y-149644181D01*
X139633661Y-149649422D01*
X139644368Y-149672921D01*
X139658528Y-149694514D01*
X139660716Y-149708801D01*
X139662631Y-149713002D01*
X139663873Y-149729401D01*
X139664964Y-149847717D01*
X139664537Y-149859198D01*
X139647970Y-150057222D01*
X139622765Y-150122387D01*
X139566330Y-150163580D01*
X139524941Y-150170883D01*
X139429947Y-150171296D01*
X139403735Y-150167528D01*
X139403673Y-150167915D01*
X139387628Y-150165340D01*
X139387631Y-150165318D01*
X139380993Y-150164407D01*
X139380991Y-150164430D01*
X139372921Y-150163508D01*
X139321442Y-150164396D01*
X139319306Y-150164414D01*
X139319304Y-150164414D01*
X139302852Y-150163318D01*
X139294798Y-150162239D01*
X139237033Y-150162112D01*
X139233814Y-150162063D01*
X139176048Y-150160434D01*
X139167971Y-150161267D01*
X139167895Y-150160537D01*
X139154940Y-150161931D01*
X138146082Y-150159713D01*
X138137317Y-150159693D01*
X138136495Y-150159475D01*
X138071608Y-150159548D01*
X138071260Y-150159548D01*
X138071259Y-150159547D01*
X138000514Y-150159394D01*
X137996803Y-150159635D01*
X130629995Y-150168119D01*
X130629994Y-150168119D01*
X130617999Y-150168132D01*
X130600843Y-150164803D01*
X130552338Y-150168207D01*
X130548047Y-150168212D01*
X130548047Y-150168213D01*
X130524642Y-150168240D01*
X130457580Y-150148633D01*
X130411764Y-150095882D01*
X130400499Y-150044240D01*
X130400499Y-149052129D01*
X130400498Y-149052123D01*
X130398437Y-149032952D01*
X130394091Y-148992517D01*
X130379259Y-148952751D01*
X130343797Y-148857671D01*
X130343793Y-148857664D01*
X130257547Y-148742455D01*
X130257544Y-148742452D01*
X130142335Y-148656206D01*
X130142328Y-148656202D01*
X130007482Y-148605908D01*
X130007483Y-148605908D01*
X129947883Y-148599501D01*
X129947881Y-148599500D01*
X129947873Y-148599500D01*
X129947865Y-148599500D01*
X128724500Y-148599500D01*
X128657461Y-148579815D01*
X128611706Y-148527011D01*
X128600500Y-148475500D01*
X128600500Y-146550097D01*
X128620185Y-146483058D01*
X128636819Y-146462416D01*
X128962416Y-146136819D01*
X129023739Y-146103334D01*
X129050097Y-146100500D01*
X129913331Y-146100500D01*
X129913347Y-146100501D01*
X129920943Y-146100501D01*
X130079054Y-146100501D01*
X130079057Y-146100501D01*
X130231785Y-146059577D01*
X130303424Y-146018216D01*
X130368716Y-145980520D01*
X130480520Y-145868716D01*
X130480520Y-145868714D01*
X130490724Y-145858511D01*
X130490727Y-145858506D01*
X133480520Y-142868716D01*
X133559577Y-142731784D01*
X133600501Y-142579057D01*
X133600501Y-142420942D01*
X133600501Y-142413347D01*
X133600500Y-142413329D01*
X133600500Y-127920945D01*
X133600500Y-127920943D01*
X133566288Y-127793263D01*
X133559578Y-127768219D01*
X133559577Y-127768216D01*
X133559577Y-127768215D01*
X133519904Y-127699500D01*
X133480520Y-127631284D01*
X133368716Y-127519480D01*
X133364385Y-127515149D01*
X133364374Y-127515139D01*
X131636819Y-125787584D01*
X131603334Y-125726261D01*
X131600500Y-125699903D01*
X131600500Y-123901439D01*
X131620185Y-123834400D01*
X131672989Y-123788645D01*
X131681168Y-123785257D01*
X131792326Y-123743798D01*
X131792326Y-123743797D01*
X131792331Y-123743796D01*
X131907546Y-123657546D01*
X131993796Y-123542331D01*
X132044091Y-123407483D01*
X132050500Y-123347873D01*
X132050499Y-121452128D01*
X132044091Y-121392517D01*
X132016443Y-121318390D01*
X131993797Y-121257671D01*
X131993793Y-121257664D01*
X131907547Y-121142455D01*
X131907544Y-121142452D01*
X131792335Y-121056206D01*
X131792328Y-121056202D01*
X131657482Y-121005908D01*
X131657483Y-121005908D01*
X131597883Y-120999501D01*
X131597881Y-120999500D01*
X131597873Y-120999500D01*
X131597865Y-120999500D01*
X130904500Y-120999500D01*
X130837461Y-120979815D01*
X130791706Y-120927011D01*
X130780500Y-120875500D01*
X130780500Y-119661445D01*
X130780499Y-119661441D01*
X130765842Y-119531351D01*
X130765841Y-119531349D01*
X130765841Y-119531343D01*
X130708122Y-119366394D01*
X130615147Y-119218424D01*
X130491576Y-119094853D01*
X130343606Y-119001878D01*
X130343605Y-119001877D01*
X130343604Y-119001877D01*
X130178658Y-118944159D01*
X130178648Y-118944157D01*
X130048558Y-118929500D01*
X130048552Y-118929500D01*
X129411448Y-118929500D01*
X129411441Y-118929500D01*
X129281351Y-118944157D01*
X129281341Y-118944159D01*
X129116395Y-119001877D01*
X128968423Y-119094853D01*
X128844853Y-119218423D01*
X128751877Y-119366395D01*
X128694159Y-119531341D01*
X128694157Y-119531351D01*
X128679500Y-119661441D01*
X128679500Y-120998558D01*
X128694157Y-121128648D01*
X128694158Y-121128655D01*
X128694159Y-121128657D01*
X128703041Y-121154041D01*
X128710000Y-121194994D01*
X128710000Y-121719670D01*
X128690255Y-121699925D01*
X128604745Y-121650556D01*
X128509370Y-121625000D01*
X128410630Y-121625000D01*
X128315255Y-121650556D01*
X128229745Y-121699925D01*
X128210000Y-121719670D01*
X128210000Y-121000000D01*
X128141469Y-121000000D01*
X128011460Y-121014648D01*
X127846613Y-121072330D01*
X127698737Y-121165246D01*
X127575246Y-121288737D01*
X127482330Y-121436613D01*
X127424648Y-121601460D01*
X127410000Y-121731469D01*
X127410000Y-122150000D01*
X128113590Y-122150000D01*
X128159925Y-122230255D01*
X128229745Y-122300075D01*
X128315255Y-122349444D01*
X128410630Y-122375000D01*
X128509370Y-122375000D01*
X128604745Y-122349444D01*
X128690255Y-122300075D01*
X128760075Y-122230255D01*
X128806410Y-122150000D01*
X129510000Y-122150000D01*
X129510000Y-121854500D01*
X129512550Y-121845814D01*
X129511262Y-121836853D01*
X129522240Y-121812812D01*
X129529685Y-121787461D01*
X129536525Y-121781533D01*
X129540287Y-121773297D01*
X129562521Y-121759007D01*
X129582489Y-121741706D01*
X129593003Y-121739418D01*
X129599065Y-121735523D01*
X129634000Y-121730500D01*
X129825500Y-121730500D01*
X129892539Y-121750185D01*
X129938294Y-121802989D01*
X129949500Y-121854500D01*
X129949500Y-123347870D01*
X129949501Y-123347876D01*
X129955908Y-123407483D01*
X130006202Y-123542328D01*
X130006206Y-123542335D01*
X130092452Y-123657544D01*
X130092455Y-123657547D01*
X130207664Y-123743793D01*
X130207673Y-123743798D01*
X130318832Y-123785257D01*
X130374766Y-123827127D01*
X130399184Y-123892592D01*
X130399500Y-123901439D01*
X130399500Y-125699901D01*
X130390856Y-125729337D01*
X130384333Y-125759327D01*
X130380577Y-125764344D01*
X130379815Y-125766940D01*
X130363182Y-125787582D01*
X130287584Y-125863181D01*
X130226261Y-125896666D01*
X130199902Y-125899500D01*
X125649620Y-125899500D01*
X125649604Y-125899499D01*
X125642008Y-125899499D01*
X125483893Y-125899499D01*
X125407529Y-125919961D01*
X125331164Y-125940423D01*
X125331159Y-125940426D01*
X125194240Y-126019475D01*
X125194232Y-126019481D01*
X120519481Y-130694232D01*
X120519480Y-130694234D01*
X120488025Y-130748716D01*
X120440423Y-130831165D01*
X120399499Y-130983893D01*
X120399499Y-130983895D01*
X120399499Y-131151996D01*
X120399500Y-131152009D01*
X120399500Y-131173048D01*
X120379815Y-131240087D01*
X120331800Y-131283530D01*
X120318389Y-131290363D01*
X120152786Y-131410679D01*
X120008028Y-131555437D01*
X119887715Y-131721037D01*
X119794781Y-131903427D01*
X119731522Y-132098116D01*
X119699500Y-132300299D01*
X119699500Y-132505002D01*
X119731522Y-132707185D01*
X119794781Y-132901874D01*
X119887715Y-133084264D01*
X120008028Y-133249864D01*
X120152786Y-133394622D01*
X120272758Y-133481785D01*
X120318390Y-133514938D01*
X120434607Y-133574154D01*
X120500776Y-133607869D01*
X120500778Y-133607869D01*
X120500781Y-133607871D01*
X120534162Y-133618717D01*
X120695465Y-133671128D01*
X120796557Y-133687139D01*
X120897648Y-133703151D01*
X120897649Y-133703151D01*
X121102351Y-133703151D01*
X121102352Y-133703151D01*
X121304534Y-133671128D01*
X121499219Y-133607871D01*
X121681610Y-133514938D01*
X121774590Y-133447383D01*
X121847213Y-133394622D01*
X121847215Y-133394619D01*
X121847219Y-133394617D01*
X121991966Y-133249870D01*
X121991968Y-133249866D01*
X121991971Y-133249864D01*
X122054840Y-133163330D01*
X122112287Y-133084261D01*
X122205220Y-132901870D01*
X122268477Y-132707185D01*
X122300500Y-132505003D01*
X122300500Y-132300299D01*
X122268477Y-132098117D01*
X122205220Y-131903432D01*
X122205218Y-131903429D01*
X122205218Y-131903427D01*
X122171503Y-131837258D01*
X122112287Y-131721041D01*
X122104556Y-131710400D01*
X121991971Y-131555437D01*
X121847217Y-131410683D01*
X121847212Y-131410679D01*
X121764438Y-131350540D01*
X121721772Y-131295210D01*
X121715793Y-131225597D01*
X121748399Y-131163802D01*
X121749568Y-131162615D01*
X123293486Y-129618698D01*
X123354807Y-129585215D01*
X123424499Y-129590199D01*
X123480432Y-129632071D01*
X123491649Y-129650084D01*
X123507714Y-129681613D01*
X123628028Y-129847213D01*
X123772786Y-129991971D01*
X123873190Y-130064917D01*
X123938390Y-130112287D01*
X124008901Y-130148214D01*
X124120776Y-130205218D01*
X124120778Y-130205218D01*
X124120781Y-130205220D01*
X124225137Y-130239127D01*
X124315465Y-130268477D01*
X124416557Y-130284488D01*
X124517648Y-130300500D01*
X124517649Y-130300500D01*
X124722351Y-130300500D01*
X124722352Y-130300500D01*
X124924534Y-130268477D01*
X124938842Y-130263827D01*
X125008679Y-130261831D01*
X125064841Y-130294077D01*
X125363181Y-130592416D01*
X125396666Y-130653739D01*
X125399500Y-130680097D01*
X125399500Y-133163330D01*
X125399499Y-133163348D01*
X125399499Y-133329054D01*
X125399498Y-133329054D01*
X125440424Y-133481789D01*
X125440425Y-133481790D01*
X125459563Y-133514937D01*
X125459564Y-133514938D01*
X125519477Y-133618712D01*
X125519481Y-133618717D01*
X125638349Y-133737585D01*
X125638355Y-133737590D01*
X126063083Y-134162318D01*
X126096568Y-134223641D01*
X126091584Y-134293333D01*
X126063083Y-134337680D01*
X123634933Y-136765832D01*
X123573610Y-136799317D01*
X123547252Y-136802151D01*
X122412163Y-136802151D01*
X122345124Y-136782466D01*
X122299369Y-136729662D01*
X122290911Y-136704110D01*
X122290000Y-136699858D01*
X122273479Y-136650000D01*
X122234814Y-136533317D01*
X122142712Y-136383995D01*
X122018656Y-136259939D01*
X121869334Y-136167837D01*
X121702797Y-136112652D01*
X121702795Y-136112651D01*
X121600010Y-136102151D01*
X120399998Y-136102151D01*
X120399981Y-136102152D01*
X120297203Y-136112651D01*
X120297200Y-136112652D01*
X120130668Y-136167836D01*
X120130663Y-136167838D01*
X119981342Y-136259940D01*
X119857289Y-136383993D01*
X119765187Y-136533314D01*
X119765186Y-136533317D01*
X119710001Y-136699854D01*
X119710001Y-136699855D01*
X119710000Y-136699855D01*
X119699500Y-136802634D01*
X119699500Y-138002652D01*
X119699501Y-138002669D01*
X119710000Y-138105447D01*
X119710001Y-138105450D01*
X119765185Y-138271982D01*
X119765187Y-138271987D01*
X119769338Y-138278717D01*
X119857288Y-138421307D01*
X119981344Y-138545363D01*
X120130666Y-138637465D01*
X120297203Y-138692650D01*
X120399991Y-138703151D01*
X121600008Y-138703150D01*
X121702797Y-138692650D01*
X121869334Y-138637465D01*
X122018656Y-138545363D01*
X122142712Y-138421307D01*
X122234814Y-138271985D01*
X122289999Y-138105448D01*
X122289999Y-138105444D01*
X122290912Y-138101184D01*
X122324199Y-138039753D01*
X122385414Y-138006070D01*
X122412163Y-138003151D01*
X123760680Y-138003151D01*
X123760696Y-138003152D01*
X123768292Y-138003152D01*
X123926403Y-138003152D01*
X123926406Y-138003152D01*
X124079134Y-137962228D01*
X124129253Y-137933290D01*
X124216065Y-137883171D01*
X124327869Y-137771367D01*
X124327869Y-137771365D01*
X124338077Y-137761158D01*
X124338078Y-137761155D01*
X126912320Y-135186914D01*
X126973641Y-135153431D01*
X127043333Y-135158415D01*
X127087679Y-135186915D01*
X127111284Y-135210520D01*
X127111285Y-135210521D01*
X127111288Y-135210523D01*
X127248209Y-135289573D01*
X127248216Y-135289577D01*
X127380217Y-135324947D01*
X127439875Y-135361311D01*
X127470404Y-135424159D01*
X127465163Y-135485675D01*
X127424648Y-135601460D01*
X127410000Y-135731469D01*
X127410000Y-136150000D01*
X128113590Y-136150000D01*
X128159925Y-136230255D01*
X128229745Y-136300075D01*
X128315255Y-136349444D01*
X128410630Y-136375000D01*
X128509370Y-136375000D01*
X128604745Y-136349444D01*
X128690255Y-136300075D01*
X128760075Y-136230255D01*
X128806410Y-136150000D01*
X129510000Y-136150000D01*
X129510000Y-135854500D01*
X129512550Y-135845814D01*
X129511262Y-135836853D01*
X129522240Y-135812812D01*
X129529685Y-135787461D01*
X129536525Y-135781533D01*
X129540287Y-135773297D01*
X129562521Y-135759007D01*
X129582489Y-135741706D01*
X129593003Y-135739418D01*
X129599065Y-135735523D01*
X129634000Y-135730500D01*
X129825500Y-135730500D01*
X129892539Y-135750185D01*
X129938294Y-135802989D01*
X129949500Y-135854500D01*
X129949500Y-136149902D01*
X129929815Y-136216941D01*
X129913181Y-136237583D01*
X129537083Y-136613681D01*
X129475760Y-136647166D01*
X129449402Y-136650000D01*
X127410000Y-136650000D01*
X127410000Y-137068530D01*
X127424648Y-137198539D01*
X127482330Y-137363386D01*
X127575246Y-137511262D01*
X127698737Y-137634753D01*
X127846613Y-137727669D01*
X128011460Y-137785351D01*
X128073700Y-137792364D01*
X128138114Y-137819430D01*
X128177670Y-137877025D01*
X128179807Y-137946862D01*
X128147498Y-138003265D01*
X126787584Y-139363181D01*
X126726261Y-139396666D01*
X126699903Y-139399500D01*
X124920943Y-139399500D01*
X124768216Y-139440423D01*
X124768209Y-139440426D01*
X124631290Y-139519475D01*
X124631282Y-139519481D01*
X124519481Y-139631282D01*
X124519475Y-139631290D01*
X124440426Y-139768209D01*
X124440423Y-139768216D01*
X124399500Y-139920943D01*
X124399500Y-141449903D01*
X124379815Y-141516942D01*
X124363181Y-141537584D01*
X122154697Y-143746067D01*
X122093374Y-143779552D01*
X122023682Y-143774568D01*
X121967749Y-143732696D01*
X121954196Y-143709840D01*
X121949913Y-143700449D01*
X121934577Y-143643215D01*
X121886288Y-143559577D01*
X121855520Y-143506284D01*
X121743716Y-143394480D01*
X121743715Y-143394479D01*
X121739385Y-143390149D01*
X121739374Y-143390139D01*
X116046819Y-137697584D01*
X116013334Y-137636261D01*
X116010500Y-137609903D01*
X116010500Y-130131956D01*
X116030185Y-130064917D01*
X116082989Y-130019162D01*
X116152147Y-130009218D01*
X116207385Y-130031638D01*
X116318390Y-130112287D01*
X116388901Y-130148214D01*
X116500776Y-130205218D01*
X116500778Y-130205218D01*
X116500781Y-130205220D01*
X116605137Y-130239127D01*
X116695465Y-130268477D01*
X116796557Y-130284488D01*
X116897648Y-130300500D01*
X116897649Y-130300500D01*
X117102351Y-130300500D01*
X117102352Y-130300500D01*
X117304534Y-130268477D01*
X117499219Y-130205220D01*
X117681610Y-130112287D01*
X117820633Y-130011282D01*
X117847213Y-129991971D01*
X117847215Y-129991968D01*
X117847219Y-129991966D01*
X117991966Y-129847219D01*
X117991968Y-129847215D01*
X117991971Y-129847213D01*
X118044732Y-129774590D01*
X118112287Y-129681610D01*
X118205220Y-129499219D01*
X118268477Y-129304534D01*
X118300500Y-129102352D01*
X118300500Y-128897648D01*
X118268477Y-128695466D01*
X118205220Y-128500781D01*
X118205218Y-128500778D01*
X118205218Y-128500776D01*
X118171503Y-128434607D01*
X118112287Y-128318390D01*
X118104556Y-128307749D01*
X117991971Y-128152786D01*
X117847213Y-128008028D01*
X117681610Y-127887712D01*
X117668200Y-127880879D01*
X117617406Y-127832903D01*
X117600500Y-127770397D01*
X117600500Y-124753561D01*
X117608652Y-124709344D01*
X117654547Y-124589101D01*
X118123627Y-123360108D01*
X118165923Y-123304496D01*
X118220073Y-123281853D01*
X118304534Y-123268477D01*
X118499219Y-123205220D01*
X118681610Y-123112287D01*
X118774590Y-123044732D01*
X118847213Y-122991971D01*
X118847215Y-122991968D01*
X118847219Y-122991966D01*
X118991966Y-122847219D01*
X118991968Y-122847215D01*
X118991971Y-122847213D01*
X119044732Y-122774590D01*
X119112287Y-122681610D01*
X119205220Y-122499219D01*
X119268477Y-122304534D01*
X119300500Y-122102352D01*
X119300500Y-121897648D01*
X124319500Y-121897648D01*
X124319500Y-122102351D01*
X124351522Y-122304534D01*
X124414781Y-122499223D01*
X124478691Y-122624653D01*
X124507712Y-122681609D01*
X124507715Y-122681613D01*
X124628028Y-122847213D01*
X124772786Y-122991971D01*
X124878163Y-123068530D01*
X124938390Y-123112287D01*
X125054607Y-123171503D01*
X125120776Y-123205218D01*
X125120778Y-123205218D01*
X125120781Y-123205220D01*
X125225137Y-123239127D01*
X125315465Y-123268477D01*
X125399911Y-123281852D01*
X125517648Y-123300500D01*
X125517649Y-123300500D01*
X125722351Y-123300500D01*
X125722352Y-123300500D01*
X125924534Y-123268477D01*
X126119219Y-123205220D01*
X126301610Y-123112287D01*
X126361835Y-123068530D01*
X127410000Y-123068530D01*
X127424648Y-123198539D01*
X127482330Y-123363386D01*
X127575246Y-123511262D01*
X127698737Y-123634753D01*
X127846613Y-123727669D01*
X128011460Y-123785351D01*
X128141469Y-123799999D01*
X128141473Y-123800000D01*
X128210000Y-123800000D01*
X128710000Y-123800000D01*
X128778527Y-123800000D01*
X128778530Y-123799999D01*
X128908539Y-123785351D01*
X129073386Y-123727669D01*
X129221262Y-123634753D01*
X129344753Y-123511262D01*
X129437669Y-123363386D01*
X129495351Y-123198539D01*
X129509999Y-123068530D01*
X129510000Y-123068526D01*
X129510000Y-122650000D01*
X128710000Y-122650000D01*
X128710000Y-123800000D01*
X128210000Y-123800000D01*
X128210000Y-122650000D01*
X127410000Y-122650000D01*
X127410000Y-123068530D01*
X126361835Y-123068530D01*
X126394590Y-123044732D01*
X126467213Y-122991971D01*
X126467215Y-122991968D01*
X126467219Y-122991966D01*
X126611966Y-122847219D01*
X126611968Y-122847215D01*
X126611971Y-122847213D01*
X126732284Y-122681614D01*
X126732285Y-122681613D01*
X126732287Y-122681610D01*
X126825220Y-122499219D01*
X126888477Y-122304534D01*
X126920500Y-122102352D01*
X126920500Y-121897648D01*
X126902109Y-121781533D01*
X126896702Y-121747395D01*
X126888477Y-121695465D01*
X126825218Y-121500776D01*
X126791503Y-121434607D01*
X126732287Y-121318390D01*
X126710743Y-121288737D01*
X126611971Y-121152786D01*
X126467213Y-121008028D01*
X126301613Y-120887715D01*
X126301612Y-120887714D01*
X126301610Y-120887713D01*
X126244653Y-120858691D01*
X126119223Y-120794781D01*
X125924534Y-120731522D01*
X125749995Y-120703878D01*
X125722352Y-120699500D01*
X125517648Y-120699500D01*
X125493329Y-120703351D01*
X125315465Y-120731522D01*
X125120776Y-120794781D01*
X124938386Y-120887715D01*
X124772786Y-121008028D01*
X124628028Y-121152786D01*
X124507715Y-121318386D01*
X124414781Y-121500776D01*
X124351522Y-121695465D01*
X124319500Y-121897648D01*
X119300500Y-121897648D01*
X119282109Y-121781533D01*
X119268477Y-121695465D01*
X119205218Y-121500776D01*
X119171503Y-121434607D01*
X119112287Y-121318390D01*
X119090743Y-121288737D01*
X118991971Y-121152786D01*
X118847213Y-121008028D01*
X118681610Y-120887712D01*
X118668200Y-120880879D01*
X118617406Y-120832903D01*
X118600500Y-120770397D01*
X118600500Y-118229601D01*
X118620185Y-118162562D01*
X118668206Y-118119116D01*
X118681610Y-118112287D01*
X118847219Y-117991966D01*
X118991966Y-117847219D01*
X118991968Y-117847215D01*
X118991971Y-117847213D01*
X119044732Y-117774590D01*
X119112287Y-117681610D01*
X119205220Y-117499219D01*
X119268477Y-117304534D01*
X119300500Y-117102352D01*
X119300500Y-116897648D01*
X124319500Y-116897648D01*
X124319500Y-117102351D01*
X124351522Y-117304534D01*
X124414781Y-117499223D01*
X124507715Y-117681613D01*
X124628028Y-117847213D01*
X124772786Y-117991971D01*
X124927749Y-118104556D01*
X124938390Y-118112287D01*
X125019499Y-118153614D01*
X125120776Y-118205218D01*
X125120778Y-118205218D01*
X125120781Y-118205220D01*
X125195818Y-118229601D01*
X125315465Y-118268477D01*
X125416557Y-118284488D01*
X125517648Y-118300500D01*
X125517649Y-118300500D01*
X125722351Y-118300500D01*
X125722352Y-118300500D01*
X125924534Y-118268477D01*
X126119219Y-118205220D01*
X126301610Y-118112287D01*
X126394590Y-118044732D01*
X126467213Y-117991971D01*
X126467215Y-117991968D01*
X126467219Y-117991966D01*
X126611966Y-117847219D01*
X126611968Y-117847215D01*
X126611971Y-117847213D01*
X126664732Y-117774590D01*
X126732287Y-117681610D01*
X126825220Y-117499219D01*
X126888477Y-117304534D01*
X126920500Y-117102352D01*
X126920500Y-116897648D01*
X126888477Y-116695466D01*
X126883825Y-116681151D01*
X126881832Y-116611312D01*
X126914075Y-116555158D01*
X128358506Y-115110728D01*
X128358511Y-115110724D01*
X128368714Y-115100520D01*
X128368716Y-115100520D01*
X128480520Y-114988716D01*
X128540916Y-114884106D01*
X128559577Y-114851785D01*
X128600500Y-114699058D01*
X128600500Y-114540943D01*
X128600500Y-110229601D01*
X128620185Y-110162562D01*
X128668206Y-110119116D01*
X128681610Y-110112287D01*
X128847219Y-109991966D01*
X128991966Y-109847219D01*
X128991968Y-109847215D01*
X128991971Y-109847213D01*
X129044732Y-109774590D01*
X129112287Y-109681610D01*
X129205220Y-109499219D01*
X129268477Y-109304534D01*
X129300500Y-109102352D01*
X129300500Y-108897648D01*
X129268477Y-108695466D01*
X129205220Y-108500781D01*
X129205218Y-108500778D01*
X129205218Y-108500776D01*
X129153865Y-108399992D01*
X129112287Y-108318390D01*
X129096892Y-108297200D01*
X128991971Y-108152786D01*
X128847213Y-108008028D01*
X128681613Y-107887715D01*
X128681612Y-107887714D01*
X128681610Y-107887713D01*
X128621898Y-107857288D01*
X128499223Y-107794781D01*
X128304534Y-107731522D01*
X128129995Y-107703878D01*
X128102352Y-107699500D01*
X127897648Y-107699500D01*
X127873329Y-107703351D01*
X127695465Y-107731522D01*
X127500776Y-107794781D01*
X127318386Y-107887715D01*
X127152786Y-108008028D01*
X127008028Y-108152786D01*
X126887715Y-108318386D01*
X126794781Y-108500776D01*
X126731522Y-108695465D01*
X126699500Y-108897648D01*
X126699500Y-109102351D01*
X126731522Y-109304534D01*
X126794781Y-109499223D01*
X126846135Y-109600009D01*
X126883320Y-109672989D01*
X126887715Y-109681613D01*
X127008028Y-109847213D01*
X127008034Y-109847219D01*
X127152781Y-109991966D01*
X127318390Y-110112287D01*
X127331793Y-110119116D01*
X127382589Y-110167088D01*
X127399500Y-110229601D01*
X127399500Y-114319902D01*
X127379815Y-114386941D01*
X127363181Y-114407583D01*
X126064842Y-115705921D01*
X126003519Y-115739406D01*
X125938848Y-115736173D01*
X125924534Y-115731522D01*
X125749995Y-115703878D01*
X125722352Y-115699500D01*
X125517648Y-115699500D01*
X125493329Y-115703351D01*
X125315465Y-115731522D01*
X125120776Y-115794781D01*
X124938386Y-115887715D01*
X124772786Y-116008028D01*
X124628028Y-116152786D01*
X124507715Y-116318386D01*
X124414781Y-116500776D01*
X124351522Y-116695465D01*
X124319500Y-116897648D01*
X119300500Y-116897648D01*
X119268477Y-116695466D01*
X119205220Y-116500781D01*
X119205218Y-116500778D01*
X119205218Y-116500776D01*
X119169976Y-116431610D01*
X119112287Y-116318390D01*
X119062032Y-116249219D01*
X118991971Y-116152786D01*
X118847213Y-116008028D01*
X118681613Y-115887715D01*
X118681612Y-115887714D01*
X118681610Y-115887713D01*
X118612208Y-115852351D01*
X118499223Y-115794781D01*
X118304534Y-115731522D01*
X118129995Y-115703878D01*
X118102352Y-115699500D01*
X117897648Y-115699500D01*
X117873329Y-115703351D01*
X117695465Y-115731522D01*
X117500776Y-115794781D01*
X117318386Y-115887715D01*
X117152786Y-116008028D01*
X117008028Y-116152786D01*
X116887715Y-116318386D01*
X116794781Y-116500776D01*
X116731522Y-116695465D01*
X116699500Y-116897648D01*
X116699500Y-117102351D01*
X116731522Y-117304534D01*
X116794781Y-117499223D01*
X116887715Y-117681613D01*
X117008028Y-117847213D01*
X117008034Y-117847219D01*
X117152781Y-117991966D01*
X117318390Y-118112287D01*
X117331793Y-118119116D01*
X117382589Y-118167088D01*
X117399500Y-118229601D01*
X117399500Y-120770397D01*
X117379815Y-120837436D01*
X117331800Y-120880879D01*
X117318389Y-120887712D01*
X117152786Y-121008028D01*
X117008028Y-121152786D01*
X116887715Y-121318386D01*
X116794781Y-121500776D01*
X116731522Y-121695465D01*
X116699500Y-121897648D01*
X116699500Y-122102351D01*
X116731522Y-122304534D01*
X116794781Y-122499223D01*
X116887712Y-122681609D01*
X116985495Y-122816197D01*
X117008974Y-122882004D01*
X117001024Y-122933299D01*
X116459554Y-124351946D01*
X116459555Y-124351947D01*
X116456033Y-124361176D01*
X116440423Y-124388216D01*
X116427959Y-124434727D01*
X116425684Y-124440690D01*
X116410785Y-124479727D01*
X116408593Y-124500963D01*
X116405025Y-124520316D01*
X116399500Y-124540937D01*
X116399500Y-124540943D01*
X116399500Y-124589101D01*
X116394557Y-124637008D01*
X116399500Y-124667836D01*
X116399500Y-127770397D01*
X116379815Y-127837436D01*
X116331800Y-127880879D01*
X116318393Y-127887710D01*
X116207385Y-127968362D01*
X116141578Y-127991841D01*
X116073524Y-127976015D01*
X116024830Y-127925909D01*
X116010500Y-127868043D01*
X116010500Y-114260097D01*
X116030185Y-114193058D01*
X116046819Y-114172416D01*
X120582416Y-109636819D01*
X120643739Y-109603334D01*
X120670097Y-109600500D01*
X121587837Y-109600500D01*
X121654876Y-109620185D01*
X121700631Y-109672989D01*
X121709089Y-109698541D01*
X121709999Y-109702792D01*
X121710001Y-109702797D01*
X121765186Y-109869334D01*
X121857288Y-110018656D01*
X121981344Y-110142712D01*
X122130666Y-110234814D01*
X122297203Y-110289999D01*
X122399991Y-110300500D01*
X123600008Y-110300499D01*
X123702797Y-110289999D01*
X123869334Y-110234814D01*
X124018656Y-110142712D01*
X124142712Y-110018656D01*
X124234814Y-109869334D01*
X124289999Y-109702797D01*
X124300500Y-109600009D01*
X124300499Y-108399992D01*
X124289999Y-108297203D01*
X124234814Y-108130666D01*
X124142712Y-107981344D01*
X124018656Y-107857288D01*
X123869334Y-107765186D01*
X123702797Y-107710001D01*
X123702795Y-107710000D01*
X123600010Y-107699500D01*
X122399998Y-107699500D01*
X122399981Y-107699501D01*
X122297203Y-107710000D01*
X122297200Y-107710001D01*
X122130668Y-107765185D01*
X122130663Y-107765187D01*
X121981342Y-107857289D01*
X121857289Y-107981342D01*
X121765187Y-108130663D01*
X121765185Y-108130668D01*
X121710000Y-108297204D01*
X121709088Y-108301467D01*
X121675801Y-108362898D01*
X121614586Y-108396581D01*
X121587837Y-108399500D01*
X120449057Y-108399500D01*
X120290942Y-108399500D01*
X120138215Y-108440423D01*
X120138214Y-108440423D01*
X120138212Y-108440424D01*
X120138209Y-108440425D01*
X120088096Y-108469359D01*
X120088095Y-108469360D01*
X120044689Y-108494420D01*
X120001285Y-108519479D01*
X120001282Y-108519481D01*
X114929481Y-113591282D01*
X114929479Y-113591285D01*
X114879361Y-113678094D01*
X114879359Y-113678096D01*
X114850425Y-113728209D01*
X114850424Y-113728210D01*
X114850423Y-113728215D01*
X114809499Y-113880943D01*
X114809499Y-113880945D01*
X114809499Y-114049046D01*
X114809500Y-114049059D01*
X114809500Y-137255573D01*
X114789815Y-137322612D01*
X114737011Y-137368367D01*
X114667853Y-137378311D01*
X114623500Y-137362960D01*
X114601786Y-137350423D01*
X114563603Y-137340192D01*
X114449057Y-137309499D01*
X114290943Y-137309499D01*
X114283347Y-137309499D01*
X114283331Y-137309500D01*
X113594500Y-137309500D01*
X113527461Y-137289815D01*
X113481706Y-137237011D01*
X113470500Y-137185500D01*
X113470500Y-124599601D01*
X113490185Y-124532562D01*
X113538206Y-124489116D01*
X113551610Y-124482287D01*
X113717219Y-124361966D01*
X113861966Y-124217219D01*
X113861968Y-124217215D01*
X113861971Y-124217213D01*
X113914732Y-124144590D01*
X113982287Y-124051610D01*
X114075220Y-123869219D01*
X114138477Y-123674534D01*
X114170500Y-123472352D01*
X114170500Y-123267648D01*
X114138477Y-123065466D01*
X114075220Y-122870781D01*
X114075218Y-122870778D01*
X114075218Y-122870776D01*
X114041503Y-122804607D01*
X113982287Y-122688390D01*
X113974556Y-122677749D01*
X113861971Y-122522786D01*
X113717213Y-122378028D01*
X113551613Y-122257715D01*
X113551612Y-122257714D01*
X113551610Y-122257713D01*
X113494653Y-122228691D01*
X113369223Y-122164781D01*
X113174534Y-122101522D01*
X112999995Y-122073878D01*
X112972352Y-122069500D01*
X112767648Y-122069500D01*
X112743329Y-122073351D01*
X112565465Y-122101522D01*
X112370776Y-122164781D01*
X112188386Y-122257715D01*
X112022786Y-122378028D01*
X111878028Y-122522786D01*
X111757715Y-122688386D01*
X111664781Y-122870776D01*
X111601522Y-123065465D01*
X111569500Y-123267648D01*
X111569500Y-123472351D01*
X111601522Y-123674534D01*
X111664781Y-123869223D01*
X111757715Y-124051613D01*
X111878028Y-124217213D01*
X111878034Y-124217219D01*
X112022781Y-124361966D01*
X112188390Y-124482287D01*
X112201793Y-124489116D01*
X112252589Y-124537088D01*
X112269500Y-124599601D01*
X112269500Y-137830943D01*
X112269500Y-137989057D01*
X112300688Y-138105450D01*
X112310423Y-138141783D01*
X112310426Y-138141790D01*
X112389475Y-138278709D01*
X112389479Y-138278714D01*
X112389480Y-138278716D01*
X112501284Y-138390520D01*
X112501286Y-138390521D01*
X112501290Y-138390524D01*
X112638209Y-138469573D01*
X112638216Y-138469577D01*
X112790943Y-138510500D01*
X114069903Y-138510500D01*
X114136942Y-138530185D01*
X114157584Y-138546819D01*
X117898083Y-142287318D01*
X117931568Y-142348641D01*
X117926584Y-142418333D01*
X117898083Y-142462680D01*
X117834214Y-142526548D01*
X117834215Y-142526549D01*
X117729478Y-142631286D01*
X117679361Y-142718094D01*
X117679359Y-142718096D01*
X117650425Y-142768209D01*
X117650424Y-142768210D01*
X117650423Y-142768215D01*
X117609499Y-142920943D01*
X117609499Y-142920945D01*
X117609499Y-143089046D01*
X117609500Y-143089059D01*
X117609500Y-147949902D01*
X117589815Y-148016941D01*
X117573181Y-148037583D01*
X116984202Y-148626561D01*
X116922879Y-148660046D01*
X116858203Y-148656811D01*
X116833584Y-148648812D01*
X116787952Y-148633985D01*
X116679086Y-148616742D01*
X116570222Y-148599500D01*
X116349778Y-148599500D01*
X116277201Y-148610995D01*
X116132047Y-148633985D01*
X115922396Y-148702103D01*
X115922393Y-148702104D01*
X115725974Y-148802187D01*
X115547641Y-148931752D01*
X115547636Y-148931756D01*
X115391756Y-149087636D01*
X115391752Y-149087641D01*
X115262187Y-149265974D01*
X115162104Y-149462393D01*
X115162103Y-149462396D01*
X115093985Y-149672047D01*
X115065252Y-149853460D01*
X115059500Y-149889778D01*
X115059500Y-150110222D01*
X115072074Y-150189608D01*
X115093985Y-150327952D01*
X115162103Y-150537603D01*
X115162104Y-150537606D01*
X115208539Y-150628737D01*
X115251785Y-150713612D01*
X115262187Y-150734025D01*
X115391752Y-150912358D01*
X115391756Y-150912363D01*
X115441416Y-150962023D01*
X115474901Y-151023346D01*
X115469917Y-151093038D01*
X115428045Y-151148971D01*
X115362581Y-151173388D01*
X115352905Y-151173701D01*
X115039830Y-151171605D01*
X115034301Y-151171445D01*
X114646079Y-151151510D01*
X114619594Y-151142233D01*
X114592219Y-151136069D01*
X114587065Y-151130839D01*
X114580137Y-151128413D01*
X114562871Y-151106290D01*
X114543175Y-151086304D01*
X114541667Y-151079119D01*
X114537150Y-151073332D01*
X114534586Y-151045386D01*
X114528822Y-151017925D01*
X114531127Y-151007685D01*
X114530767Y-151003755D01*
X114536575Y-150983493D01*
X114537307Y-150981571D01*
X114537311Y-150981567D01*
X114547913Y-150953761D01*
X114553779Y-150940703D01*
X114567510Y-150914326D01*
X114573841Y-150885764D01*
X114584264Y-150858431D01*
X114588040Y-150821709D01*
X114596031Y-150785665D01*
X114595661Y-150777201D01*
X114599769Y-150739691D01*
X114601139Y-150734581D01*
X114601139Y-150700717D01*
X114601790Y-150688029D01*
X114605175Y-150655114D01*
X114605254Y-150654350D01*
X114603567Y-150643855D01*
X114602709Y-150638507D01*
X114601139Y-150618839D01*
X114601139Y-150602799D01*
X114601139Y-150602798D01*
X114601139Y-150602797D01*
X114590729Y-150563947D01*
X114584349Y-150524235D01*
X114573745Y-150500560D01*
X114567031Y-150475503D01*
X114551465Y-150448542D01*
X114550096Y-150446170D01*
X114550096Y-150446171D01*
X114546917Y-150440665D01*
X114530479Y-150403964D01*
X114514110Y-150383842D01*
X114509159Y-150375266D01*
X114501141Y-150361378D01*
X114501137Y-150361373D01*
X114477201Y-150337437D01*
X114468690Y-150328007D01*
X114468644Y-150327951D01*
X114447317Y-150301733D01*
X114447315Y-150301731D01*
X114434312Y-150292328D01*
X114434312Y-150292327D01*
X114426289Y-150286525D01*
X114407953Y-150268189D01*
X114373124Y-150248080D01*
X114367972Y-150244354D01*
X114367967Y-150244351D01*
X114340529Y-150224510D01*
X114340527Y-150224509D01*
X114331815Y-150221187D01*
X114325535Y-150218792D01*
X114307723Y-150210320D01*
X114293826Y-150202297D01*
X114261116Y-150193531D01*
X114261116Y-150193532D01*
X114254972Y-150191885D01*
X114217393Y-150177557D01*
X114191589Y-150174902D01*
X114182027Y-150172340D01*
X114166533Y-150168189D01*
X114166531Y-150168189D01*
X114126309Y-150168189D01*
X114086300Y-150164074D01*
X114060688Y-150168189D01*
X103624500Y-150168189D01*
X103557461Y-150148504D01*
X103511706Y-150095700D01*
X103500500Y-150044189D01*
X103500500Y-149443684D01*
X103520185Y-149376645D01*
X103572989Y-149330890D01*
X103583678Y-149326596D01*
X109048708Y-147421857D01*
X109094568Y-147409570D01*
X109110717Y-147400245D01*
X109121774Y-147396392D01*
X109128325Y-147394109D01*
X109163806Y-147369981D01*
X109171515Y-147365144D01*
X109208696Y-147343678D01*
X109213604Y-147338770D01*
X109221883Y-147330490D01*
X109237302Y-147320007D01*
X109268313Y-147284060D01*
X109301882Y-147250492D01*
X109311206Y-147234342D01*
X109323386Y-147220224D01*
X109344035Y-147177480D01*
X109367774Y-147136364D01*
X109369570Y-147129660D01*
X109377694Y-147107807D01*
X109380712Y-147101561D01*
X109389596Y-147054920D01*
X109401882Y-147009070D01*
X109401882Y-146990426D01*
X109403769Y-146980521D01*
X109404073Y-146978927D01*
X109404073Y-146978926D01*
X109405372Y-146972109D01*
X109402217Y-146929298D01*
X109401882Y-146920184D01*
X109401882Y-131508389D01*
X109401896Y-131508178D01*
X109401896Y-116069897D01*
X109404298Y-116059057D01*
X109401896Y-116004173D01*
X109401896Y-115949220D01*
X109401895Y-115949219D01*
X109400835Y-115941163D01*
X109400925Y-115941151D01*
X109398427Y-115924929D01*
X109396798Y-115887715D01*
X109221082Y-111872719D01*
X109220963Y-111867297D01*
X109220963Y-95096648D01*
X109240648Y-95029609D01*
X109245625Y-95022433D01*
X110853132Y-92870763D01*
X110853214Y-92870699D01*
X110891547Y-92819344D01*
X110891548Y-92819343D01*
X110891549Y-92819342D01*
X110907476Y-92798022D01*
X110931941Y-92765277D01*
X110931941Y-92765274D01*
X110936741Y-92758851D01*
X110936998Y-92758453D01*
X111438695Y-92086338D01*
X111494571Y-92044391D01*
X111564255Y-92039311D01*
X111625625Y-92072711D01*
X111659194Y-92133988D01*
X111662064Y-92160513D01*
X111662064Y-94835500D01*
X111642379Y-94902539D01*
X111589575Y-94948294D01*
X111538064Y-94959500D01*
X110332129Y-94959500D01*
X110332123Y-94959501D01*
X110272516Y-94965908D01*
X110137671Y-95016202D01*
X110137664Y-95016206D01*
X110022455Y-95102452D01*
X110022452Y-95102455D01*
X109936206Y-95217664D01*
X109936202Y-95217671D01*
X109885908Y-95352517D01*
X109879501Y-95412116D01*
X109879501Y-95412123D01*
X109879500Y-95412135D01*
X109879500Y-100587870D01*
X109879501Y-100587876D01*
X109885908Y-100647483D01*
X109936202Y-100782328D01*
X109936206Y-100782335D01*
X110022452Y-100897544D01*
X110022455Y-100897547D01*
X110137664Y-100983793D01*
X110137671Y-100983797D01*
X110272517Y-101034091D01*
X110272515Y-101034091D01*
X110303756Y-101037450D01*
X110368307Y-101064188D01*
X110408155Y-101121581D01*
X110414500Y-101160739D01*
X110414500Y-103058330D01*
X110414499Y-103058348D01*
X110414499Y-103224054D01*
X110414498Y-103224054D01*
X110455423Y-103376785D01*
X110484358Y-103426900D01*
X110484359Y-103426904D01*
X110484360Y-103426904D01*
X110534479Y-103513714D01*
X110534481Y-103513717D01*
X110653349Y-103632585D01*
X110653355Y-103632590D01*
X112233181Y-105212416D01*
X112266666Y-105273739D01*
X112269500Y-105300097D01*
X112269500Y-114520397D01*
X112249815Y-114587436D01*
X112201800Y-114630879D01*
X112188389Y-114637712D01*
X112022786Y-114758028D01*
X111878028Y-114902786D01*
X111757715Y-115068386D01*
X111664781Y-115250776D01*
X111601522Y-115445465D01*
X111569500Y-115647648D01*
X111569500Y-115852351D01*
X111601522Y-116054534D01*
X111664781Y-116249223D01*
X111757715Y-116431613D01*
X111878028Y-116597213D01*
X112022786Y-116741971D01*
X112177749Y-116854556D01*
X112188390Y-116862287D01*
X112304607Y-116921503D01*
X112370776Y-116955218D01*
X112370778Y-116955218D01*
X112370781Y-116955220D01*
X112475137Y-116989127D01*
X112565465Y-117018477D01*
X112666557Y-117034488D01*
X112767648Y-117050500D01*
X112767649Y-117050500D01*
X112972351Y-117050500D01*
X112972352Y-117050500D01*
X113174534Y-117018477D01*
X113369219Y-116955220D01*
X113551610Y-116862287D01*
X113644590Y-116794732D01*
X113717213Y-116741971D01*
X113717215Y-116741968D01*
X113717219Y-116741966D01*
X113861966Y-116597219D01*
X113861968Y-116597215D01*
X113861971Y-116597213D01*
X113932035Y-116500776D01*
X113982287Y-116431610D01*
X114075220Y-116249219D01*
X114138477Y-116054534D01*
X114170500Y-115852352D01*
X114170500Y-115647648D01*
X114138477Y-115445466D01*
X114075220Y-115250781D01*
X114075218Y-115250778D01*
X114075218Y-115250776D01*
X114003857Y-115110724D01*
X113982287Y-115068390D01*
X113924402Y-114988717D01*
X113861971Y-114902786D01*
X113717213Y-114758028D01*
X113551610Y-114637712D01*
X113538200Y-114630879D01*
X113487406Y-114582903D01*
X113470500Y-114520397D01*
X113470500Y-104920945D01*
X113470500Y-104920943D01*
X113429577Y-104768216D01*
X113429577Y-104768215D01*
X113429577Y-104768214D01*
X113400639Y-104718095D01*
X113400637Y-104718092D01*
X113350520Y-104631284D01*
X113238716Y-104519480D01*
X113238715Y-104519479D01*
X113234385Y-104515149D01*
X113234374Y-104515139D01*
X111651819Y-102932584D01*
X111618334Y-102871261D01*
X111615500Y-102844903D01*
X111615500Y-101160738D01*
X111635185Y-101093699D01*
X111687989Y-101047944D01*
X111726247Y-101037448D01*
X111757483Y-101034091D01*
X111892331Y-100983796D01*
X112007546Y-100897546D01*
X112093796Y-100782331D01*
X112144091Y-100647483D01*
X112150500Y-100587873D01*
X112150499Y-97765095D01*
X112170184Y-97698057D01*
X112186813Y-97677420D01*
X112396525Y-97467708D01*
X112457846Y-97434225D01*
X112527538Y-97439209D01*
X112583471Y-97481081D01*
X112607888Y-97546545D01*
X112607939Y-97563500D01*
X112599500Y-97692259D01*
X112599500Y-98307741D01*
X112624923Y-98695633D01*
X112639754Y-98921911D01*
X112720090Y-99532117D01*
X112720092Y-99532128D01*
X112840159Y-100135750D01*
X112840165Y-100135776D01*
X112999461Y-100730277D01*
X112999465Y-100730292D01*
X113197302Y-101313098D01*
X113197306Y-101313109D01*
X113432839Y-101881734D01*
X113705057Y-102433739D01*
X114012792Y-102966752D01*
X114012808Y-102966777D01*
X114354741Y-103478516D01*
X114729416Y-103966802D01*
X114729421Y-103966807D01*
X114729422Y-103966809D01*
X115135237Y-104429552D01*
X115570448Y-104864763D01*
X115966870Y-105212416D01*
X116033197Y-105270583D01*
X116521483Y-105645258D01*
X117033222Y-105987191D01*
X117033247Y-105987207D01*
X117566260Y-106294942D01*
X118089189Y-106552821D01*
X118118269Y-106567162D01*
X118686899Y-106802697D01*
X119055499Y-106927819D01*
X119269707Y-107000534D01*
X119269712Y-107000535D01*
X119269717Y-107000537D01*
X119864226Y-107159835D01*
X119864235Y-107159836D01*
X119864249Y-107159840D01*
X120452800Y-107276909D01*
X120467881Y-107279909D01*
X121078096Y-107360246D01*
X121692259Y-107400500D01*
X121692270Y-107400500D01*
X122307730Y-107400500D01*
X122307741Y-107400500D01*
X122921904Y-107360246D01*
X123532119Y-107279909D01*
X123822635Y-107222121D01*
X124135750Y-107159840D01*
X124135757Y-107159838D01*
X124135774Y-107159835D01*
X124730283Y-107000537D01*
X125313101Y-106802697D01*
X125881731Y-106567162D01*
X126433739Y-106294942D01*
X126966761Y-105987202D01*
X127478515Y-105645259D01*
X127966809Y-105270578D01*
X128429552Y-104864763D01*
X128864763Y-104429552D01*
X129270578Y-103966809D01*
X129645259Y-103478515D01*
X129987202Y-102966761D01*
X130294942Y-102433739D01*
X130567162Y-101881731D01*
X130802697Y-101313101D01*
X131000537Y-100730283D01*
X131159835Y-100135774D01*
X131279909Y-99532119D01*
X131360246Y-98921904D01*
X131400500Y-98307741D01*
X131400500Y-97692259D01*
X131360246Y-97078096D01*
X131279909Y-96467881D01*
X131159835Y-95864226D01*
X131000537Y-95269717D01*
X130982867Y-95217664D01*
X130896268Y-94962550D01*
X130802697Y-94686899D01*
X130567162Y-94118269D01*
X130294942Y-93566261D01*
X130294942Y-93566260D01*
X129987207Y-93033247D01*
X129987191Y-93033222D01*
X129645258Y-92521483D01*
X129270583Y-92033197D01*
X129270578Y-92033191D01*
X128864763Y-91570448D01*
X128429552Y-91135237D01*
X127966809Y-90729422D01*
X127966807Y-90729421D01*
X127966802Y-90729416D01*
X127478516Y-90354741D01*
X126966777Y-90012808D01*
X126966752Y-90012792D01*
X126433739Y-89705057D01*
X125881734Y-89432839D01*
X125313109Y-89197306D01*
X125313098Y-89197302D01*
X124730292Y-88999465D01*
X124730277Y-88999461D01*
X124135776Y-88840165D01*
X124135750Y-88840159D01*
X123532128Y-88720092D01*
X123532117Y-88720090D01*
X122921911Y-88639754D01*
X122683062Y-88624099D01*
X122307741Y-88599500D01*
X121692259Y-88599500D01*
X121336690Y-88622804D01*
X121078088Y-88639754D01*
X120467882Y-88720090D01*
X120467871Y-88720092D01*
X119864249Y-88840159D01*
X119864223Y-88840165D01*
X119269722Y-88999461D01*
X119269707Y-88999465D01*
X118686901Y-89197302D01*
X118686890Y-89197306D01*
X118118259Y-89432841D01*
X117978343Y-89501840D01*
X117909511Y-89513836D01*
X117845120Y-89486714D01*
X117805614Y-89429086D01*
X117799500Y-89390628D01*
X117799500Y-86520257D01*
X117819185Y-86453218D01*
X117871989Y-86407463D01*
X117941147Y-86397519D01*
X117961819Y-86402326D01*
X118148754Y-86463065D01*
X118381948Y-86500000D01*
X118618052Y-86500000D01*
X118851247Y-86463065D01*
X119075802Y-86390102D01*
X119286163Y-86282918D01*
X119286169Y-86282914D01*
X119369104Y-86222658D01*
X119369105Y-86222658D01*
X118670234Y-85523787D01*
X118712292Y-85512518D01*
X118837708Y-85440110D01*
X118940110Y-85337708D01*
X119012518Y-85212292D01*
X119023787Y-85170234D01*
X119722658Y-85869105D01*
X119722658Y-85869104D01*
X119782914Y-85786169D01*
X119782918Y-85786163D01*
X119890102Y-85575802D01*
X119963065Y-85351247D01*
X120000000Y-85118052D01*
X120000000Y-84881947D01*
X119963065Y-84648752D01*
X119890102Y-84424197D01*
X119782914Y-84213828D01*
X119722658Y-84130894D01*
X119722658Y-84130893D01*
X119023787Y-84829765D01*
X119012518Y-84787708D01*
X118940110Y-84662292D01*
X118837708Y-84559890D01*
X118712292Y-84487482D01*
X118670233Y-84476212D01*
X119369105Y-83777340D01*
X119369104Y-83777339D01*
X119286174Y-83717087D01*
X119075802Y-83609897D01*
X118851247Y-83536934D01*
X118851248Y-83536934D01*
X118626355Y-83501315D01*
X118563220Y-83471386D01*
X118526289Y-83412074D01*
X118527287Y-83342212D01*
X118558070Y-83291164D01*
X118868713Y-82980521D01*
X118868716Y-82980520D01*
X118980520Y-82868716D01*
X119030639Y-82781904D01*
X119059577Y-82731785D01*
X119100501Y-82579057D01*
X119100501Y-82420943D01*
X119100501Y-82413348D01*
X119100500Y-82413330D01*
X119100500Y-81954067D01*
X119120185Y-81887028D01*
X119168205Y-81843582D01*
X119286433Y-81783343D01*
X119477510Y-81644517D01*
X119644517Y-81477510D01*
X119783343Y-81286433D01*
X119843583Y-81168204D01*
X119891558Y-81117409D01*
X119954068Y-81100500D01*
X123545932Y-81100500D01*
X123612971Y-81120185D01*
G37*
%TD.AperFunction*%
%TD*%
M02*
