%TF.GenerationSoftware,KiCad,Pcbnew,9.0.2*%
%TF.CreationDate,2025-07-02T03:30:09+03:00*%
%TF.ProjectId,solder submission,736f6c64-6572-4207-9375-626d69737369,rev?*%
%TF.SameCoordinates,Original*%
%TF.FileFunction,Copper,L2,Bot*%
%TF.FilePolarity,Positive*%
%FSLAX46Y46*%
G04 Gerber Fmt 4.6, Leading zero omitted, Abs format (unit mm)*
G04 Created by KiCad (PCBNEW 9.0.2) date 2025-07-02 03:30:09*
%MOMM*%
%LPD*%
G01*
G04 APERTURE LIST*
G04 Aperture macros list*
%AMRoundRect*
0 Rectangle with rounded corners*
0 $1 Rounding radius*
0 $2 $3 $4 $5 $6 $7 $8 $9 X,Y pos of 4 corners*
0 Add a 4 corners polygon primitive as box body*
4,1,4,$2,$3,$4,$5,$6,$7,$8,$9,$2,$3,0*
0 Add four circle primitives for the rounded corners*
1,1,$1+$1,$2,$3*
1,1,$1+$1,$4,$5*
1,1,$1+$1,$6,$7*
1,1,$1+$1,$8,$9*
0 Add four rect primitives between the rounded corners*
20,1,$1+$1,$2,$3,$4,$5,0*
20,1,$1+$1,$4,$5,$6,$7,0*
20,1,$1+$1,$6,$7,$8,$9,0*
20,1,$1+$1,$8,$9,$2,$3,0*%
G04 Aperture macros list end*
%TA.AperFunction,ComponentPad*%
%ADD10R,1.800000X1.800000*%
%TD*%
%TA.AperFunction,ComponentPad*%
%ADD11C,1.800000*%
%TD*%
%TA.AperFunction,ComponentPad*%
%ADD12C,2.000000*%
%TD*%
%TA.AperFunction,ComponentPad*%
%ADD13R,1.100000X1.800000*%
%TD*%
%TA.AperFunction,ComponentPad*%
%ADD14RoundRect,0.275000X0.275000X0.625000X-0.275000X0.625000X-0.275000X-0.625000X0.275000X-0.625000X0*%
%TD*%
%TA.AperFunction,ComponentPad*%
%ADD15C,1.600000*%
%TD*%
%TA.AperFunction,ComponentPad*%
%ADD16RoundRect,0.250000X0.550000X-0.550000X0.550000X0.550000X-0.550000X0.550000X-0.550000X-0.550000X0*%
%TD*%
%TA.AperFunction,ComponentPad*%
%ADD17RoundRect,0.250000X-0.550000X-0.550000X0.550000X-0.550000X0.550000X0.550000X-0.550000X0.550000X0*%
%TD*%
%TA.AperFunction,ViaPad*%
%ADD18C,0.600000*%
%TD*%
%TA.AperFunction,Conductor*%
%ADD19C,0.200000*%
%TD*%
G04 APERTURE END LIST*
D10*
%TO.P,D1,1,K*%
%TO.N,Net-(D1-K)*%
X119000000Y-150000000D03*
D11*
%TO.P,D1,2,A*%
%TO.N,Net-(D1-A)*%
X116460000Y-150000000D03*
%TD*%
D12*
%TO.P,SW1,1,1*%
%TO.N,GND*%
X125000000Y-85000000D03*
X118500000Y-85000000D03*
%TO.P,SW1,2,2*%
%TO.N,Net-(BT1--)*%
X125000000Y-80500000D03*
X118500000Y-80500000D03*
%TD*%
D10*
%TO.P,D2,1,K*%
%TO.N,Net-(D2-K)*%
X129000000Y-150000000D03*
D11*
%TO.P,D2,2,A*%
%TO.N,Net-(D2-A)*%
X126460000Y-150000000D03*
%TD*%
D13*
%TO.P,Q1,1,C*%
%TO.N,Net-(D1-K)*%
X131000000Y-136400000D03*
D14*
%TO.P,Q1,2,B*%
%TO.N,Net-(Q1-B)*%
X129730000Y-134330000D03*
%TO.P,Q1,3,E*%
%TO.N,GND*%
X128460000Y-136400000D03*
%TD*%
D15*
%TO.P,R1,1*%
%TO.N,+3V*%
X112870000Y-115750000D03*
%TO.P,R1,2*%
%TO.N,Net-(D1-A)*%
X112870000Y-123370000D03*
%TD*%
%TO.P,R4,1*%
%TO.N,+3V*%
X118000000Y-122000000D03*
%TO.P,R4,2*%
%TO.N,Net-(D2-A)*%
X125620000Y-122000000D03*
%TD*%
%TO.P,R3,1*%
%TO.N,+3V*%
X117000000Y-129000000D03*
%TO.P,R3,2*%
%TO.N,Net-(Q1-B)*%
X124620000Y-129000000D03*
%TD*%
D13*
%TO.P,Q2,1,C*%
%TO.N,Net-(D2-K)*%
X131000000Y-122400000D03*
D14*
%TO.P,Q2,2,B*%
%TO.N,Net-(Q2-B)*%
X129730000Y-120330000D03*
%TO.P,Q2,3,E*%
%TO.N,GND*%
X128460000Y-122400000D03*
%TD*%
D16*
%TO.P,C2,1*%
%TO.N,Net-(Q1-B)*%
X121000000Y-137402651D03*
D15*
%TO.P,C2,2*%
%TO.N,Net-(D2-K)*%
X121000000Y-132402651D03*
%TD*%
%TO.P,R2,1*%
%TO.N,+3V*%
X118000000Y-117000000D03*
%TO.P,R2,2*%
%TO.N,Net-(Q2-B)*%
X125620000Y-117000000D03*
%TD*%
D17*
%TO.P,C1,1*%
%TO.N,Net-(D1-K)*%
X123000000Y-109000000D03*
D15*
%TO.P,C1,2*%
%TO.N,Net-(Q2-B)*%
X128000000Y-109000000D03*
%TD*%
D18*
%TO.N,GND*%
X132000000Y-125000000D03*
%TD*%
D19*
%TO.N,+3V*%
X112870000Y-115750000D02*
X116750000Y-115750000D01*
X116750000Y-115750000D02*
X118000000Y-117000000D01*
%TO.N,Net-(Q2-B)*%
X130500000Y-119960000D02*
X129730000Y-120730000D01*
X125620000Y-117000000D02*
X129750000Y-117000000D01*
X130500000Y-117650000D02*
X130500000Y-119960000D01*
X129750000Y-117000000D02*
X130500000Y-117650000D01*
%TO.N,Net-(D2-A)*%
X125460000Y-146250000D02*
X126210000Y-145500000D01*
X128460000Y-143000000D02*
X126000000Y-140540000D01*
X126000000Y-122000000D02*
X125620000Y-122000000D01*
X127460000Y-145500000D02*
X128460000Y-144500000D01*
X128460000Y-144500000D02*
X128460000Y-143000000D01*
X126460000Y-150000000D02*
X125460000Y-149000000D01*
X126210000Y-145500000D02*
X127460000Y-145500000D01*
X125460000Y-149000000D02*
X125460000Y-146250000D01*
X126000000Y-140540000D02*
X126000000Y-122000000D01*
%TO.N,GND*%
X132000000Y-125000000D02*
X131460000Y-125000000D01*
X131460000Y-125000000D02*
X128460000Y-122000000D01*
X132000000Y-125000000D02*
X132000000Y-126557050D01*
X128460000Y-130097050D02*
X128460000Y-136000000D01*
X132000000Y-126557050D02*
X128460000Y-130097050D01*
%TD*%
%TA.AperFunction,Conductor*%
%TO.N,GND*%
G36*
X122882015Y-55788614D02*
G01*
X122927770Y-55841418D01*
X122938976Y-55892929D01*
X122938976Y-58736671D01*
X122973084Y-58863967D01*
X123006030Y-58921030D01*
X123038976Y-58978094D01*
X123132162Y-59071280D01*
X123246290Y-59137172D01*
X123373584Y-59171280D01*
X123505368Y-59171280D01*
X123888244Y-59171280D01*
X123955283Y-59190965D01*
X124001038Y-59243769D01*
X124012244Y-59295280D01*
X124012244Y-60300156D01*
X124012244Y-61997286D01*
X124011836Y-61998849D01*
X124012244Y-62063163D01*
X124012244Y-62127541D01*
X124012404Y-62128696D01*
X124012671Y-62130628D01*
X124029607Y-62192267D01*
X124029813Y-62193025D01*
X124046352Y-62254751D01*
X124047103Y-62256562D01*
X124047103Y-62256563D01*
X124047550Y-62257642D01*
X124079875Y-62312820D01*
X124080269Y-62313497D01*
X124112241Y-62368872D01*
X124112244Y-62368877D01*
X124112247Y-62368880D01*
X124113470Y-62370473D01*
X124113489Y-62370498D01*
X124114153Y-62371364D01*
X124114203Y-62371413D01*
X124159938Y-62416571D01*
X124205430Y-62462063D01*
X124206829Y-62462871D01*
X124917626Y-63164700D01*
X125588358Y-63826970D01*
X125588363Y-63826980D01*
X125588366Y-63826978D01*
X126837424Y-65060491D01*
X126871291Y-65121603D01*
X126874292Y-65148719D01*
X126874292Y-66948327D01*
X126874292Y-69092461D01*
X126870949Y-69109559D01*
X126874292Y-69158139D01*
X126874292Y-69206831D01*
X126875692Y-69212054D01*
X126878800Y-69223654D01*
X126879996Y-69241031D01*
X126895793Y-69287075D01*
X126896898Y-69291198D01*
X126908400Y-69334122D01*
X126911105Y-69338807D01*
X126917110Y-69349208D01*
X126922763Y-69365683D01*
X126949941Y-69406073D01*
X126952075Y-69409768D01*
X126952075Y-69409769D01*
X126974289Y-69448245D01*
X126974293Y-69448250D01*
X126978118Y-69452075D01*
X126993314Y-69470530D01*
X127483004Y-70198264D01*
X127484062Y-70199863D01*
X128146054Y-71217264D01*
X128147139Y-71218961D01*
X128711431Y-72117824D01*
X128712062Y-72118840D01*
X129288263Y-73056639D01*
X129289092Y-73058008D01*
X130152306Y-74504479D01*
X130153769Y-74506997D01*
X130564784Y-75233986D01*
X130567671Y-75239401D01*
X130688500Y-75480203D01*
X130691723Y-75487153D01*
X130772603Y-75676716D01*
X130841386Y-75837930D01*
X130862648Y-75887762D01*
X130872595Y-75936424D01*
X130872595Y-89243849D01*
X130872579Y-89245862D01*
X130872504Y-89250471D01*
X130869264Y-89286151D01*
X130871696Y-89300218D01*
X130871507Y-89311875D01*
X130871370Y-89312314D01*
X130871465Y-89313664D01*
X130870808Y-89335078D01*
X130871582Y-89342783D01*
X130872595Y-89350473D01*
X130887163Y-89404843D01*
X130888092Y-89408536D01*
X130900990Y-89463356D01*
X130904683Y-89470232D01*
X130906703Y-89477768D01*
X130935778Y-89528130D01*
X130936687Y-89529821D01*
X130936707Y-89529856D01*
X130937453Y-89531244D01*
X130963348Y-89579455D01*
X130968694Y-89585140D01*
X130972595Y-89591896D01*
X131013741Y-89633042D01*
X131015035Y-89634418D01*
X131053630Y-89675459D01*
X131057476Y-89678602D01*
X131059459Y-89679990D01*
X131065239Y-89684540D01*
X131065781Y-89685082D01*
X131066329Y-89685398D01*
X131072163Y-89689991D01*
X131072663Y-89690694D01*
X131090713Y-89708031D01*
X132135084Y-90961052D01*
X132622386Y-91545709D01*
X132624307Y-91548340D01*
X132669983Y-91602817D01*
X132670216Y-91603095D01*
X132715832Y-91657825D01*
X132718057Y-91660157D01*
X134333932Y-93587453D01*
X134827562Y-94176218D01*
X134827561Y-94176218D01*
X134834233Y-94184176D01*
X134835392Y-94186596D01*
X134876532Y-94234627D01*
X134876948Y-94235123D01*
X134918222Y-94284351D01*
X134926127Y-94292528D01*
X135253184Y-94674364D01*
X135281844Y-94738081D01*
X135283007Y-94755026D01*
X135283007Y-111687303D01*
X135282930Y-111691676D01*
X135133552Y-115924929D01*
X135132997Y-115940645D01*
X135130660Y-115949381D01*
X135130677Y-116006360D01*
X135130600Y-116008571D01*
X135128669Y-116063313D01*
X135129445Y-116071404D01*
X135129023Y-116071444D01*
X135130703Y-116086203D01*
X135139998Y-144940423D01*
X135140229Y-145658004D01*
X135135922Y-145690275D01*
X135140248Y-145723598D01*
X135140251Y-145731601D01*
X135140252Y-145731602D01*
X135140261Y-145757228D01*
X135140261Y-145757232D01*
X135146558Y-145780701D01*
X135149761Y-145796866D01*
X135165941Y-145921485D01*
X135166957Y-145935470D01*
X135169247Y-146078784D01*
X135169047Y-146088089D01*
X135159107Y-146256085D01*
X135158749Y-146260674D01*
X135147341Y-146378864D01*
X135147183Y-146379839D01*
X135140182Y-146453023D01*
X135140173Y-146453125D01*
X135133192Y-146525457D01*
X135133162Y-146526412D01*
X135125568Y-146605804D01*
X135120549Y-146630782D01*
X135120146Y-146632077D01*
X135118229Y-146680503D01*
X135117763Y-146687398D01*
X135113150Y-146735643D01*
X135113150Y-146735651D01*
X135113374Y-146736982D01*
X135114988Y-146762413D01*
X135108385Y-146929298D01*
X135107348Y-146955504D01*
X135101864Y-146985530D01*
X135104753Y-147021067D01*
X135104457Y-147028549D01*
X135103344Y-147056687D01*
X135103344Y-147056694D01*
X135108139Y-147077909D01*
X135110781Y-147095192D01*
X135123408Y-147250488D01*
X135124556Y-147264600D01*
X135123529Y-147303550D01*
X135129873Y-147330002D01*
X135130650Y-147339547D01*
X135130651Y-147339554D01*
X135132080Y-147357120D01*
X135132081Y-147357125D01*
X135142936Y-147387530D01*
X135146735Y-147400298D01*
X135183498Y-147553559D01*
X135183497Y-147553559D01*
X135184796Y-147558975D01*
X135191098Y-147601925D01*
X135200103Y-147622788D01*
X135202598Y-147633188D01*
X135205405Y-147644892D01*
X135205408Y-147644899D01*
X135223459Y-147678160D01*
X135228322Y-147688166D01*
X135286571Y-147823118D01*
X135286570Y-147823118D01*
X135289790Y-147830579D01*
X135298839Y-147862435D01*
X135315780Y-147890793D01*
X135319002Y-147898256D01*
X135319006Y-147898264D01*
X135328883Y-147921144D01*
X135328884Y-147921146D01*
X135333997Y-147927609D01*
X135344407Y-147940770D01*
X135353600Y-147954096D01*
X135361472Y-147967271D01*
X135370962Y-147986887D01*
X135374797Y-147996996D01*
X135374798Y-147996998D01*
X135397638Y-148028697D01*
X135403475Y-148037577D01*
X135423523Y-148071133D01*
X135431275Y-148078657D01*
X135445527Y-148095161D01*
X135449002Y-148099985D01*
X135460283Y-148119024D01*
X135464544Y-148127947D01*
X135464546Y-148127949D01*
X135490541Y-148158362D01*
X135493879Y-148162267D01*
X135520260Y-148198881D01*
X135536523Y-148212157D01*
X135543751Y-148220613D01*
X135543751Y-148220614D01*
X135543756Y-148220619D01*
X135550495Y-148228504D01*
X135563598Y-148247030D01*
X135567841Y-148254373D01*
X135567845Y-148254379D01*
X135597113Y-148283630D01*
X135603716Y-148290768D01*
X135630609Y-148322231D01*
X135630610Y-148322231D01*
X135630613Y-148322235D01*
X135637605Y-148327037D01*
X135655057Y-148341542D01*
X135699639Y-148386098D01*
X135702851Y-148389432D01*
X135739692Y-148429131D01*
X135739695Y-148429133D01*
X135739699Y-148429136D01*
X135747778Y-148434211D01*
X135754529Y-148440958D01*
X135803449Y-148469184D01*
X135838950Y-148491486D01*
X135851281Y-148499233D01*
X135858668Y-148502620D01*
X135858524Y-148502931D01*
X135861034Y-148504026D01*
X135861165Y-148503710D01*
X135868672Y-148506816D01*
X135868676Y-148506819D01*
X135921022Y-148520829D01*
X135925444Y-148522102D01*
X137043384Y-148866831D01*
X137046425Y-148868683D01*
X137106298Y-148886232D01*
X137165917Y-148904616D01*
X137165926Y-148904616D01*
X137166122Y-148904650D01*
X137180251Y-148907906D01*
X138332232Y-149245554D01*
X139574915Y-149611597D01*
X139596625Y-149625575D01*
X139620213Y-149636086D01*
X139625521Y-149644181D01*
X139633661Y-149649422D01*
X139644368Y-149672921D01*
X139658528Y-149694514D01*
X139660716Y-149708801D01*
X139662631Y-149713002D01*
X139663873Y-149729401D01*
X139664964Y-149847717D01*
X139664537Y-149859198D01*
X139647970Y-150057222D01*
X139622765Y-150122387D01*
X139566330Y-150163580D01*
X139524941Y-150170883D01*
X139429947Y-150171296D01*
X139403735Y-150167528D01*
X139403673Y-150167915D01*
X139387628Y-150165340D01*
X139387631Y-150165318D01*
X139380993Y-150164407D01*
X139380991Y-150164430D01*
X139372921Y-150163508D01*
X139321442Y-150164396D01*
X139319306Y-150164414D01*
X139319304Y-150164414D01*
X139302852Y-150163318D01*
X139294798Y-150162239D01*
X139237033Y-150162112D01*
X139233814Y-150162063D01*
X139176048Y-150160434D01*
X139167971Y-150161267D01*
X139167895Y-150160537D01*
X139154940Y-150161931D01*
X138146082Y-150159713D01*
X138137317Y-150159693D01*
X138136495Y-150159475D01*
X138071608Y-150159548D01*
X138071260Y-150159548D01*
X138071259Y-150159547D01*
X138000514Y-150159394D01*
X137996803Y-150159635D01*
X130629995Y-150168119D01*
X130629994Y-150168119D01*
X130617999Y-150168132D01*
X130600843Y-150164803D01*
X130552338Y-150168207D01*
X130548047Y-150168212D01*
X130548047Y-150168213D01*
X130524642Y-150168240D01*
X130457580Y-150148633D01*
X130411764Y-150095882D01*
X130400499Y-150044240D01*
X130400499Y-149052129D01*
X130400498Y-149052123D01*
X130398437Y-149032952D01*
X130394091Y-148992517D01*
X130379259Y-148952751D01*
X130343797Y-148857671D01*
X130343793Y-148857664D01*
X130257547Y-148742455D01*
X130257544Y-148742452D01*
X130142335Y-148656206D01*
X130142328Y-148656202D01*
X130007482Y-148605908D01*
X130007483Y-148605908D01*
X129947883Y-148599501D01*
X129947881Y-148599500D01*
X129947873Y-148599500D01*
X129947864Y-148599500D01*
X128052129Y-148599500D01*
X128052123Y-148599501D01*
X127992516Y-148605908D01*
X127857671Y-148656202D01*
X127857664Y-148656206D01*
X127742455Y-148742452D01*
X127742452Y-148742455D01*
X127656206Y-148857664D01*
X127656203Y-148857669D01*
X127626398Y-148937581D01*
X127584526Y-148993514D01*
X127519062Y-149017931D01*
X127450789Y-149003079D01*
X127422535Y-148981928D01*
X127372363Y-148931756D01*
X127372358Y-148931752D01*
X127194025Y-148802187D01*
X127194024Y-148802186D01*
X127194022Y-148802185D01*
X127122411Y-148765697D01*
X126997606Y-148702104D01*
X126997603Y-148702103D01*
X126787952Y-148633985D01*
X126659561Y-148613650D01*
X126570222Y-148599500D01*
X126349778Y-148599500D01*
X126285067Y-148609749D01*
X126203898Y-148622605D01*
X126134604Y-148613650D01*
X126081152Y-148568654D01*
X126060513Y-148501902D01*
X126060500Y-148500132D01*
X126060500Y-146550097D01*
X126080185Y-146483058D01*
X126096819Y-146462416D01*
X126422416Y-146136819D01*
X126483739Y-146103334D01*
X126510097Y-146100500D01*
X127373331Y-146100500D01*
X127373347Y-146100501D01*
X127380943Y-146100501D01*
X127539054Y-146100501D01*
X127539057Y-146100501D01*
X127691785Y-146059577D01*
X127763424Y-146018216D01*
X127828716Y-145980520D01*
X127940520Y-145868716D01*
X127940520Y-145868714D01*
X127950724Y-145858511D01*
X127950727Y-145858506D01*
X128940520Y-144868716D01*
X129019577Y-144731784D01*
X129060501Y-144579057D01*
X129060501Y-144420942D01*
X129060501Y-144413347D01*
X129060500Y-144413329D01*
X129060500Y-142920945D01*
X129060500Y-142920943D01*
X129019577Y-142768216D01*
X129019573Y-142768209D01*
X128940524Y-142631290D01*
X128940521Y-142631286D01*
X128940520Y-142631284D01*
X128828716Y-142519480D01*
X128828715Y-142519479D01*
X128824385Y-142515149D01*
X128824374Y-142515139D01*
X126636819Y-140327584D01*
X126603334Y-140266261D01*
X126600500Y-140239903D01*
X126600500Y-137068530D01*
X127410000Y-137068530D01*
X127424648Y-137198539D01*
X127482330Y-137363386D01*
X127575246Y-137511262D01*
X127698737Y-137634753D01*
X127846613Y-137727669D01*
X128011460Y-137785351D01*
X128141469Y-137799999D01*
X128141473Y-137800000D01*
X128210000Y-137800000D01*
X128710000Y-137800000D01*
X128778527Y-137800000D01*
X128778530Y-137799999D01*
X128908539Y-137785351D01*
X129073386Y-137727669D01*
X129221262Y-137634753D01*
X129344753Y-137511262D01*
X129437669Y-137363386D01*
X129495351Y-137198539D01*
X129509999Y-137068530D01*
X129510000Y-137068526D01*
X129510000Y-136650000D01*
X128710000Y-136650000D01*
X128710000Y-137800000D01*
X128210000Y-137800000D01*
X128210000Y-136650000D01*
X127410000Y-136650000D01*
X127410000Y-137068530D01*
X126600500Y-137068530D01*
X126600500Y-135731469D01*
X127410000Y-135731469D01*
X127410000Y-136150000D01*
X128113590Y-136150000D01*
X128159925Y-136230255D01*
X128229745Y-136300075D01*
X128315255Y-136349444D01*
X128410630Y-136375000D01*
X128509370Y-136375000D01*
X128604745Y-136349444D01*
X128690255Y-136300075D01*
X128760075Y-136230255D01*
X128806410Y-136150000D01*
X129510000Y-136150000D01*
X129510000Y-135854500D01*
X129512550Y-135845814D01*
X129511262Y-135836853D01*
X129522240Y-135812812D01*
X129529685Y-135787461D01*
X129536525Y-135781533D01*
X129540287Y-135773297D01*
X129562521Y-135759007D01*
X129582489Y-135741706D01*
X129593003Y-135739418D01*
X129599065Y-135735523D01*
X129634000Y-135730500D01*
X129825500Y-135730500D01*
X129892539Y-135750185D01*
X129938294Y-135802989D01*
X129949500Y-135854500D01*
X129949500Y-137347870D01*
X129949501Y-137347876D01*
X129955908Y-137407483D01*
X130006202Y-137542328D01*
X130006206Y-137542335D01*
X130092452Y-137657544D01*
X130092455Y-137657547D01*
X130207664Y-137743793D01*
X130207671Y-137743797D01*
X130342517Y-137794091D01*
X130342516Y-137794091D01*
X130349444Y-137794835D01*
X130402127Y-137800500D01*
X131597872Y-137800499D01*
X131657483Y-137794091D01*
X131792331Y-137743796D01*
X131907546Y-137657546D01*
X131993796Y-137542331D01*
X132044091Y-137407483D01*
X132050500Y-137347873D01*
X132050499Y-135452128D01*
X132044091Y-135392517D01*
X131993796Y-135257669D01*
X131993795Y-135257668D01*
X131993793Y-135257664D01*
X131907547Y-135142455D01*
X131907544Y-135142452D01*
X131792335Y-135056206D01*
X131792328Y-135056202D01*
X131657482Y-135005908D01*
X131657483Y-135005908D01*
X131597883Y-134999501D01*
X131597881Y-134999500D01*
X131597873Y-134999500D01*
X131597865Y-134999500D01*
X130904500Y-134999500D01*
X130837461Y-134979815D01*
X130791706Y-134927011D01*
X130780500Y-134875500D01*
X130780500Y-133661445D01*
X130780499Y-133661441D01*
X130765842Y-133531351D01*
X130765841Y-133531349D01*
X130765841Y-133531343D01*
X130708122Y-133366394D01*
X130615147Y-133218424D01*
X130491576Y-133094853D01*
X130343606Y-133001878D01*
X130343605Y-133001877D01*
X130343604Y-133001877D01*
X130178658Y-132944159D01*
X130178648Y-132944157D01*
X130048558Y-132929500D01*
X130048552Y-132929500D01*
X129411448Y-132929500D01*
X129411441Y-132929500D01*
X129281351Y-132944157D01*
X129281341Y-132944159D01*
X129116395Y-133001877D01*
X128968423Y-133094853D01*
X128844853Y-133218423D01*
X128751877Y-133366395D01*
X128694159Y-133531341D01*
X128694157Y-133531351D01*
X128679500Y-133661441D01*
X128679500Y-134998558D01*
X128694157Y-135128648D01*
X128694158Y-135128655D01*
X128694159Y-135128657D01*
X128703041Y-135154041D01*
X128710000Y-135194994D01*
X128710000Y-135719670D01*
X128690255Y-135699925D01*
X128604745Y-135650556D01*
X128509370Y-135625000D01*
X128410630Y-135625000D01*
X128315255Y-135650556D01*
X128229745Y-135699925D01*
X128210000Y-135719670D01*
X128210000Y-135000000D01*
X128141469Y-135000000D01*
X128011460Y-135014648D01*
X127846613Y-135072330D01*
X127698737Y-135165246D01*
X127575246Y-135288737D01*
X127482330Y-135436613D01*
X127424648Y-135601460D01*
X127410000Y-135731469D01*
X126600500Y-135731469D01*
X126600500Y-123068530D01*
X127410000Y-123068530D01*
X127424648Y-123198539D01*
X127482330Y-123363386D01*
X127575246Y-123511262D01*
X127698737Y-123634753D01*
X127846613Y-123727669D01*
X128011460Y-123785351D01*
X128141469Y-123799999D01*
X128141473Y-123800000D01*
X128210000Y-123800000D01*
X128710000Y-123800000D01*
X128778527Y-123800000D01*
X128778530Y-123799999D01*
X128908539Y-123785351D01*
X129073386Y-123727669D01*
X129221262Y-123634753D01*
X129344753Y-123511262D01*
X129437669Y-123363386D01*
X129495351Y-123198539D01*
X129509999Y-123068530D01*
X129510000Y-123068526D01*
X129510000Y-122650000D01*
X128710000Y-122650000D01*
X128710000Y-123800000D01*
X128210000Y-123800000D01*
X128210000Y-122650000D01*
X127410000Y-122650000D01*
X127410000Y-123068530D01*
X126600500Y-123068530D01*
X126600500Y-122903291D01*
X126620185Y-122836252D01*
X126624182Y-122830406D01*
X126675452Y-122759836D01*
X126732287Y-122681610D01*
X126825220Y-122499219D01*
X126888477Y-122304534D01*
X126920500Y-122102352D01*
X126920500Y-121897648D01*
X126902109Y-121781533D01*
X126896702Y-121747395D01*
X126888477Y-121695465D01*
X126825218Y-121500776D01*
X126791503Y-121434607D01*
X126732287Y-121318390D01*
X126710743Y-121288737D01*
X126611971Y-121152786D01*
X126467213Y-121008028D01*
X126301613Y-120887715D01*
X126301612Y-120887714D01*
X126301610Y-120887713D01*
X126244653Y-120858691D01*
X126119223Y-120794781D01*
X125924534Y-120731522D01*
X125749995Y-120703878D01*
X125722352Y-120699500D01*
X125517648Y-120699500D01*
X125493329Y-120703351D01*
X125315465Y-120731522D01*
X125120776Y-120794781D01*
X124938386Y-120887715D01*
X124772786Y-121008028D01*
X124628028Y-121152786D01*
X124507715Y-121318386D01*
X124414781Y-121500776D01*
X124351522Y-121695465D01*
X124319500Y-121897648D01*
X124319500Y-122102351D01*
X124351522Y-122304534D01*
X124414781Y-122499223D01*
X124507715Y-122681613D01*
X124628028Y-122847213D01*
X124772786Y-122991971D01*
X124878163Y-123068530D01*
X124938390Y-123112287D01*
X125120781Y-123205220D01*
X125313819Y-123267942D01*
X125371493Y-123307378D01*
X125398692Y-123371737D01*
X125399500Y-123385872D01*
X125399500Y-127735240D01*
X125379815Y-127802279D01*
X125327011Y-127848034D01*
X125257853Y-127857978D01*
X125219205Y-127845725D01*
X125119223Y-127794782D01*
X125119222Y-127794781D01*
X125119219Y-127794780D01*
X125039035Y-127768726D01*
X124924534Y-127731522D01*
X124749995Y-127703878D01*
X124722352Y-127699500D01*
X124517648Y-127699500D01*
X124493329Y-127703351D01*
X124315465Y-127731522D01*
X124120776Y-127794781D01*
X123938386Y-127887715D01*
X123772786Y-128008028D01*
X123628028Y-128152786D01*
X123507715Y-128318386D01*
X123414781Y-128500776D01*
X123351522Y-128695465D01*
X123319500Y-128897648D01*
X123319500Y-129102351D01*
X123351522Y-129304534D01*
X123414781Y-129499223D01*
X123507715Y-129681613D01*
X123628028Y-129847213D01*
X123772786Y-129991971D01*
X123927749Y-130104556D01*
X123938390Y-130112287D01*
X124047054Y-130167654D01*
X124120776Y-130205218D01*
X124120778Y-130205218D01*
X124120781Y-130205220D01*
X124180919Y-130224760D01*
X124315465Y-130268477D01*
X124416557Y-130284488D01*
X124517648Y-130300500D01*
X124517649Y-130300500D01*
X124722351Y-130300500D01*
X124722352Y-130300500D01*
X124924534Y-130268477D01*
X125119219Y-130205220D01*
X125119224Y-130205217D01*
X125119228Y-130205216D01*
X125219205Y-130154275D01*
X125287874Y-130141378D01*
X125352614Y-130167654D01*
X125392872Y-130224760D01*
X125399500Y-130264759D01*
X125399500Y-140453330D01*
X125399499Y-140453348D01*
X125399499Y-140619054D01*
X125399498Y-140619054D01*
X125440423Y-140771785D01*
X125469358Y-140821900D01*
X125469359Y-140821904D01*
X125469360Y-140821904D01*
X125519479Y-140908714D01*
X125519481Y-140908717D01*
X125638349Y-141027585D01*
X125638355Y-141027590D01*
X127823181Y-143212416D01*
X127856666Y-143273739D01*
X127859500Y-143300097D01*
X127859500Y-144199902D01*
X127839815Y-144266941D01*
X127823181Y-144287583D01*
X127247584Y-144863181D01*
X127186261Y-144896666D01*
X127159903Y-144899500D01*
X126289057Y-144899500D01*
X126130943Y-144899500D01*
X125978215Y-144940423D01*
X125978214Y-144940423D01*
X125978212Y-144940424D01*
X125978209Y-144940425D01*
X125928096Y-144969359D01*
X125928095Y-144969360D01*
X125884689Y-144994420D01*
X125841285Y-145019479D01*
X125841282Y-145019481D01*
X124979479Y-145881284D01*
X124960490Y-145914175D01*
X124952464Y-145928078D01*
X124900423Y-146018215D01*
X124859499Y-146170943D01*
X124859499Y-146170945D01*
X124859499Y-146339046D01*
X124859500Y-146339059D01*
X124859500Y-148913330D01*
X124859499Y-148913348D01*
X124859499Y-149079054D01*
X124859498Y-149079054D01*
X124900424Y-149231789D01*
X124900425Y-149231790D01*
X124919101Y-149264137D01*
X124919102Y-149264138D01*
X124979477Y-149368712D01*
X124979481Y-149368717D01*
X125086560Y-149475796D01*
X125120045Y-149537119D01*
X125116811Y-149601793D01*
X125093984Y-149672049D01*
X125065252Y-149853460D01*
X125059500Y-149889778D01*
X125059500Y-150110222D01*
X125061427Y-150122387D01*
X125066100Y-150151893D01*
X125063697Y-150170481D01*
X125066350Y-150189033D01*
X125059312Y-150204411D01*
X125057144Y-150221187D01*
X125045073Y-150235524D01*
X125037275Y-150252566D01*
X125023038Y-150261699D01*
X125012146Y-150274638D01*
X124994241Y-150280173D01*
X124978466Y-150290294D01*
X124961551Y-150290280D01*
X124945394Y-150295276D01*
X124927338Y-150290253D01*
X124908597Y-150290238D01*
X124886029Y-150278761D01*
X124878081Y-150276550D01*
X124876504Y-150275551D01*
X124868298Y-150270268D01*
X124866225Y-150268195D01*
X124855108Y-150261777D01*
X124852572Y-150260144D01*
X124851513Y-150258920D01*
X124839561Y-150250511D01*
X124832051Y-150244151D01*
X124795855Y-150227076D01*
X124786767Y-150222319D01*
X124752097Y-150202303D01*
X124752094Y-150202302D01*
X124752092Y-150202301D01*
X124752093Y-150202301D01*
X124742584Y-150199752D01*
X124742584Y-150199753D01*
X124731834Y-150196872D01*
X124712864Y-150187924D01*
X124668425Y-150179882D01*
X124663463Y-150178553D01*
X124663462Y-150178552D01*
X124624808Y-150168195D01*
X124624803Y-150168195D01*
X124614958Y-150168195D01*
X124592880Y-150166214D01*
X124583186Y-150164460D01*
X124543297Y-150167770D01*
X124533043Y-150168195D01*
X121508679Y-150168195D01*
X121392742Y-150168195D01*
X121171320Y-150168195D01*
X121123585Y-150164750D01*
X121105649Y-150168195D01*
X121087384Y-150168195D01*
X121045477Y-150179424D01*
X121036777Y-150181423D01*
X120994164Y-150189608D01*
X120988343Y-150192431D01*
X120966342Y-150200628D01*
X120960100Y-150202300D01*
X120960089Y-150202305D01*
X120922514Y-150223997D01*
X120922515Y-150223998D01*
X120918643Y-150226233D01*
X120875590Y-150247114D01*
X120861784Y-150259060D01*
X120851569Y-150264958D01*
X120851569Y-150264959D01*
X120845973Y-150268190D01*
X120845965Y-150268195D01*
X120815284Y-150298876D01*
X120808750Y-150304955D01*
X120775937Y-150333352D01*
X120775933Y-150333356D01*
X120772302Y-150338713D01*
X120765687Y-150348472D01*
X120752780Y-150361381D01*
X120728864Y-150402802D01*
X120726353Y-150406508D01*
X120726346Y-150406521D01*
X120702003Y-150442440D01*
X120700710Y-150446170D01*
X120699887Y-150448542D01*
X120690119Y-150469912D01*
X120686888Y-150475507D01*
X120675655Y-150517423D01*
X120675656Y-150517424D01*
X120674498Y-150521744D01*
X120658821Y-150566948D01*
X120657506Y-150585159D01*
X120654454Y-150596551D01*
X120654454Y-150596553D01*
X120652780Y-150602798D01*
X120652780Y-150646189D01*
X120652458Y-150655114D01*
X120649335Y-150698389D01*
X120650554Y-150704735D01*
X120650554Y-150704738D01*
X120652780Y-150716328D01*
X120652780Y-150734587D01*
X120665161Y-150780796D01*
X120666004Y-150785183D01*
X120666008Y-150785199D01*
X120674193Y-150827810D01*
X120682161Y-150844240D01*
X120686888Y-150861881D01*
X120710815Y-150903324D01*
X120712763Y-150907341D01*
X120712763Y-150907342D01*
X120724256Y-150931038D01*
X120729492Y-150941835D01*
X120731698Y-150946382D01*
X120731701Y-150946388D01*
X120735926Y-150951270D01*
X120740116Y-150956381D01*
X120745314Y-150963078D01*
X120752780Y-150976009D01*
X120764264Y-150987493D01*
X120769039Y-150993645D01*
X120779085Y-151019210D01*
X120792249Y-151043317D01*
X120791680Y-151051260D01*
X120794594Y-151058673D01*
X120789224Y-151085610D01*
X120787265Y-151113009D01*
X120782491Y-151119385D01*
X120780935Y-151127195D01*
X120761853Y-151146953D01*
X120745393Y-151168942D01*
X120737652Y-151172014D01*
X120732399Y-151177454D01*
X120711565Y-151182368D01*
X120685071Y-151192884D01*
X120513695Y-151212340D01*
X120488147Y-151212591D01*
X120484548Y-151212254D01*
X120419635Y-151186405D01*
X120379003Y-151129565D01*
X120375550Y-151059781D01*
X120379923Y-151045467D01*
X120394091Y-151007483D01*
X120400500Y-150947873D01*
X120400499Y-149052128D01*
X120394091Y-148992517D01*
X120379259Y-148952751D01*
X120343797Y-148857671D01*
X120343793Y-148857664D01*
X120257547Y-148742455D01*
X120257544Y-148742452D01*
X120142335Y-148656206D01*
X120142328Y-148656202D01*
X120007482Y-148605908D01*
X120007483Y-148605908D01*
X119947883Y-148599501D01*
X119947881Y-148599500D01*
X119947873Y-148599500D01*
X119947864Y-148599500D01*
X118052129Y-148599500D01*
X118052123Y-148599501D01*
X117992516Y-148605908D01*
X117857671Y-148656202D01*
X117857664Y-148656206D01*
X117742455Y-148742452D01*
X117742452Y-148742455D01*
X117656206Y-148857664D01*
X117656203Y-148857669D01*
X117626398Y-148937581D01*
X117584526Y-148993514D01*
X117519062Y-149017931D01*
X117450789Y-149003079D01*
X117422535Y-148981928D01*
X117372363Y-148931756D01*
X117372358Y-148931752D01*
X117194025Y-148802187D01*
X117194024Y-148802186D01*
X117194022Y-148802185D01*
X117122411Y-148765697D01*
X116997606Y-148702104D01*
X116997603Y-148702103D01*
X116787952Y-148633985D01*
X116659561Y-148613650D01*
X116570222Y-148599500D01*
X116349778Y-148599500D01*
X116277201Y-148610995D01*
X116132047Y-148633985D01*
X115922396Y-148702103D01*
X115922393Y-148702104D01*
X115725974Y-148802187D01*
X115547641Y-148931752D01*
X115547636Y-148931756D01*
X115391756Y-149087636D01*
X115391752Y-149087641D01*
X115262187Y-149265974D01*
X115162104Y-149462393D01*
X115162103Y-149462396D01*
X115093985Y-149672047D01*
X115065252Y-149853460D01*
X115059500Y-149889778D01*
X115059500Y-150110222D01*
X115072074Y-150189608D01*
X115093985Y-150327952D01*
X115162103Y-150537603D01*
X115162104Y-150537606D01*
X115208539Y-150628737D01*
X115251785Y-150713612D01*
X115262187Y-150734025D01*
X115391752Y-150912358D01*
X115391756Y-150912363D01*
X115441416Y-150962023D01*
X115474901Y-151023346D01*
X115469917Y-151093038D01*
X115428045Y-151148971D01*
X115362581Y-151173388D01*
X115352905Y-151173701D01*
X115039830Y-151171605D01*
X115034301Y-151171445D01*
X114646079Y-151151510D01*
X114619594Y-151142233D01*
X114592219Y-151136069D01*
X114587065Y-151130839D01*
X114580137Y-151128413D01*
X114562871Y-151106290D01*
X114543175Y-151086304D01*
X114541667Y-151079119D01*
X114537150Y-151073332D01*
X114534586Y-151045386D01*
X114528822Y-151017925D01*
X114531127Y-151007685D01*
X114530767Y-151003755D01*
X114536575Y-150983493D01*
X114537307Y-150981571D01*
X114537311Y-150981567D01*
X114547913Y-150953761D01*
X114553779Y-150940703D01*
X114567510Y-150914326D01*
X114573841Y-150885764D01*
X114584264Y-150858431D01*
X114588040Y-150821709D01*
X114596031Y-150785665D01*
X114595661Y-150777201D01*
X114599769Y-150739691D01*
X114601139Y-150734581D01*
X114601139Y-150700717D01*
X114601790Y-150688029D01*
X114605175Y-150655114D01*
X114605254Y-150654350D01*
X114603567Y-150643855D01*
X114602709Y-150638507D01*
X114601139Y-150618839D01*
X114601139Y-150602799D01*
X114601139Y-150602798D01*
X114601139Y-150602797D01*
X114590729Y-150563947D01*
X114584349Y-150524235D01*
X114573745Y-150500560D01*
X114567031Y-150475503D01*
X114551465Y-150448542D01*
X114550096Y-150446170D01*
X114550096Y-150446171D01*
X114546917Y-150440665D01*
X114530479Y-150403964D01*
X114514110Y-150383842D01*
X114509159Y-150375266D01*
X114501141Y-150361378D01*
X114501137Y-150361373D01*
X114477201Y-150337437D01*
X114468690Y-150328007D01*
X114468644Y-150327951D01*
X114447317Y-150301733D01*
X114447315Y-150301731D01*
X114434312Y-150292328D01*
X114434312Y-150292327D01*
X114426289Y-150286525D01*
X114407953Y-150268189D01*
X114373124Y-150248080D01*
X114367972Y-150244354D01*
X114367967Y-150244351D01*
X114340529Y-150224510D01*
X114340527Y-150224509D01*
X114331815Y-150221187D01*
X114325535Y-150218792D01*
X114307723Y-150210320D01*
X114293826Y-150202297D01*
X114261116Y-150193531D01*
X114261116Y-150193532D01*
X114254972Y-150191885D01*
X114217393Y-150177557D01*
X114191589Y-150174902D01*
X114182027Y-150172340D01*
X114166533Y-150168189D01*
X114166531Y-150168189D01*
X114126309Y-150168189D01*
X114086300Y-150164074D01*
X114060688Y-150168189D01*
X103624500Y-150168189D01*
X103557461Y-150148504D01*
X103511706Y-150095700D01*
X103500500Y-150044189D01*
X103500500Y-149443684D01*
X103520185Y-149376645D01*
X103572989Y-149330890D01*
X103583678Y-149326596D01*
X109048708Y-147421857D01*
X109094568Y-147409570D01*
X109110717Y-147400245D01*
X109121774Y-147396392D01*
X109128325Y-147394109D01*
X109163806Y-147369981D01*
X109171515Y-147365144D01*
X109208696Y-147343678D01*
X109213604Y-147338770D01*
X109221883Y-147330490D01*
X109237302Y-147320007D01*
X109268313Y-147284060D01*
X109301882Y-147250492D01*
X109311206Y-147234342D01*
X109323386Y-147220224D01*
X109344035Y-147177480D01*
X109367774Y-147136364D01*
X109369570Y-147129660D01*
X109377694Y-147107807D01*
X109380712Y-147101561D01*
X109389596Y-147054920D01*
X109401882Y-147009070D01*
X109401882Y-146990426D01*
X109402815Y-146985530D01*
X109404073Y-146978927D01*
X109404073Y-146978926D01*
X109405372Y-146972109D01*
X109402217Y-146929298D01*
X109401882Y-146920184D01*
X109401882Y-136802634D01*
X119699500Y-136802634D01*
X119699500Y-138002652D01*
X119699501Y-138002669D01*
X119710000Y-138105447D01*
X119710001Y-138105450D01*
X119765185Y-138271982D01*
X119765186Y-138271985D01*
X119857288Y-138421307D01*
X119981344Y-138545363D01*
X120130666Y-138637465D01*
X120297203Y-138692650D01*
X120399991Y-138703151D01*
X121600008Y-138703150D01*
X121702797Y-138692650D01*
X121869334Y-138637465D01*
X122018656Y-138545363D01*
X122142712Y-138421307D01*
X122234814Y-138271985D01*
X122289999Y-138105448D01*
X122300500Y-138002660D01*
X122300499Y-136802643D01*
X122289999Y-136699854D01*
X122234814Y-136533317D01*
X122142712Y-136383995D01*
X122018656Y-136259939D01*
X121869334Y-136167837D01*
X121702797Y-136112652D01*
X121702795Y-136112651D01*
X121600010Y-136102151D01*
X120399998Y-136102151D01*
X120399981Y-136102152D01*
X120297203Y-136112651D01*
X120297200Y-136112652D01*
X120130668Y-136167836D01*
X120130663Y-136167838D01*
X119981342Y-136259940D01*
X119857289Y-136383993D01*
X119765187Y-136533314D01*
X119765186Y-136533317D01*
X119710001Y-136699854D01*
X119710001Y-136699855D01*
X119710000Y-136699855D01*
X119699500Y-136802634D01*
X109401882Y-136802634D01*
X109401882Y-132300299D01*
X119699500Y-132300299D01*
X119699500Y-132505002D01*
X119731522Y-132707185D01*
X119794781Y-132901874D01*
X119887715Y-133084264D01*
X120008028Y-133249864D01*
X120152786Y-133394622D01*
X120307749Y-133507207D01*
X120318390Y-133514938D01*
X120434607Y-133574154D01*
X120500776Y-133607869D01*
X120500778Y-133607869D01*
X120500781Y-133607871D01*
X120605137Y-133641778D01*
X120695465Y-133671128D01*
X120796557Y-133687139D01*
X120897648Y-133703151D01*
X120897649Y-133703151D01*
X121102351Y-133703151D01*
X121102352Y-133703151D01*
X121304534Y-133671128D01*
X121499219Y-133607871D01*
X121681610Y-133514938D01*
X121774590Y-133447383D01*
X121847213Y-133394622D01*
X121847215Y-133394619D01*
X121847219Y-133394617D01*
X121991966Y-133249870D01*
X121991968Y-133249866D01*
X121991971Y-133249864D01*
X122044732Y-133177241D01*
X122112287Y-133084261D01*
X122205220Y-132901870D01*
X122268477Y-132707185D01*
X122300500Y-132505003D01*
X122300500Y-132300299D01*
X122268477Y-132098117D01*
X122205220Y-131903432D01*
X122205218Y-131903429D01*
X122205218Y-131903427D01*
X122171503Y-131837258D01*
X122112287Y-131721041D01*
X122104556Y-131710400D01*
X121991971Y-131555437D01*
X121847213Y-131410679D01*
X121681613Y-131290366D01*
X121681612Y-131290365D01*
X121681610Y-131290364D01*
X121624653Y-131261342D01*
X121499223Y-131197432D01*
X121304534Y-131134173D01*
X121129995Y-131106529D01*
X121102352Y-131102151D01*
X120897648Y-131102151D01*
X120873329Y-131106002D01*
X120695465Y-131134173D01*
X120500776Y-131197432D01*
X120318386Y-131290366D01*
X120152786Y-131410679D01*
X120008028Y-131555437D01*
X119887715Y-131721037D01*
X119794781Y-131903427D01*
X119731522Y-132098116D01*
X119699500Y-132300299D01*
X109401882Y-132300299D01*
X109401882Y-131508389D01*
X109401896Y-131508178D01*
X109401896Y-128897648D01*
X115699500Y-128897648D01*
X115699500Y-129102351D01*
X115731522Y-129304534D01*
X115794781Y-129499223D01*
X115887715Y-129681613D01*
X116008028Y-129847213D01*
X116152786Y-129991971D01*
X116307749Y-130104556D01*
X116318390Y-130112287D01*
X116427054Y-130167654D01*
X116500776Y-130205218D01*
X116500778Y-130205218D01*
X116500781Y-130205220D01*
X116560919Y-130224760D01*
X116695465Y-130268477D01*
X116796557Y-130284488D01*
X116897648Y-130300500D01*
X116897649Y-130300500D01*
X117102351Y-130300500D01*
X117102352Y-130300500D01*
X117304534Y-130268477D01*
X117499219Y-130205220D01*
X117681610Y-130112287D01*
X117774590Y-130044732D01*
X117847213Y-129991971D01*
X117847215Y-129991968D01*
X117847219Y-129991966D01*
X117991966Y-129847219D01*
X117991968Y-129847215D01*
X117991971Y-129847213D01*
X118044732Y-129774590D01*
X118112287Y-129681610D01*
X118205220Y-129499219D01*
X118268477Y-129304534D01*
X118300500Y-129102352D01*
X118300500Y-128897648D01*
X118268477Y-128695466D01*
X118205220Y-128500781D01*
X118205218Y-128500778D01*
X118205218Y-128500776D01*
X118171503Y-128434607D01*
X118112287Y-128318390D01*
X118104556Y-128307749D01*
X117991971Y-128152786D01*
X117847213Y-128008028D01*
X117681613Y-127887715D01*
X117681612Y-127887714D01*
X117681610Y-127887713D01*
X117599204Y-127845725D01*
X117499223Y-127794781D01*
X117304534Y-127731522D01*
X117129995Y-127703878D01*
X117102352Y-127699500D01*
X116897648Y-127699500D01*
X116873329Y-127703351D01*
X116695465Y-127731522D01*
X116500776Y-127794781D01*
X116318386Y-127887715D01*
X116152786Y-128008028D01*
X116008028Y-128152786D01*
X115887715Y-128318386D01*
X115794781Y-128500776D01*
X115731522Y-128695465D01*
X115699500Y-128897648D01*
X109401896Y-128897648D01*
X109401896Y-123267648D01*
X111569500Y-123267648D01*
X111569500Y-123472351D01*
X111601522Y-123674534D01*
X111664781Y-123869223D01*
X111757715Y-124051613D01*
X111878028Y-124217213D01*
X112022786Y-124361971D01*
X112177749Y-124474556D01*
X112188390Y-124482287D01*
X112304607Y-124541503D01*
X112370776Y-124575218D01*
X112370778Y-124575218D01*
X112370781Y-124575220D01*
X112475137Y-124609127D01*
X112565465Y-124638477D01*
X112666557Y-124654488D01*
X112767648Y-124670500D01*
X112767649Y-124670500D01*
X112972351Y-124670500D01*
X112972352Y-124670500D01*
X113174534Y-124638477D01*
X113369219Y-124575220D01*
X113551610Y-124482287D01*
X113644590Y-124414732D01*
X113717213Y-124361971D01*
X113717215Y-124361968D01*
X113717219Y-124361966D01*
X113861966Y-124217219D01*
X113861968Y-124217215D01*
X113861971Y-124217213D01*
X113914732Y-124144590D01*
X113982287Y-124051610D01*
X114075220Y-123869219D01*
X114138477Y-123674534D01*
X114170500Y-123472352D01*
X114170500Y-123267648D01*
X114138477Y-123065466D01*
X114075220Y-122870781D01*
X114075218Y-122870778D01*
X114075218Y-122870776D01*
X114041503Y-122804607D01*
X113982287Y-122688390D01*
X113974556Y-122677749D01*
X113861971Y-122522786D01*
X113717213Y-122378028D01*
X113551613Y-122257715D01*
X113551612Y-122257714D01*
X113551610Y-122257713D01*
X113494653Y-122228691D01*
X113369223Y-122164781D01*
X113174534Y-122101522D01*
X112999995Y-122073878D01*
X112972352Y-122069500D01*
X112767648Y-122069500D01*
X112743329Y-122073351D01*
X112565465Y-122101522D01*
X112370776Y-122164781D01*
X112188386Y-122257715D01*
X112022786Y-122378028D01*
X111878028Y-122522786D01*
X111757715Y-122688386D01*
X111664781Y-122870776D01*
X111601522Y-123065465D01*
X111569500Y-123267648D01*
X109401896Y-123267648D01*
X109401896Y-121897648D01*
X116699500Y-121897648D01*
X116699500Y-122102351D01*
X116731522Y-122304534D01*
X116794781Y-122499223D01*
X116887715Y-122681613D01*
X117008028Y-122847213D01*
X117152786Y-122991971D01*
X117258163Y-123068530D01*
X117318390Y-123112287D01*
X117434607Y-123171503D01*
X117500776Y-123205218D01*
X117500778Y-123205218D01*
X117500781Y-123205220D01*
X117605137Y-123239127D01*
X117695465Y-123268477D01*
X117779494Y-123281786D01*
X117897648Y-123300500D01*
X117897649Y-123300500D01*
X118102351Y-123300500D01*
X118102352Y-123300500D01*
X118304534Y-123268477D01*
X118499219Y-123205220D01*
X118681610Y-123112287D01*
X118774590Y-123044732D01*
X118847213Y-122991971D01*
X118847215Y-122991968D01*
X118847219Y-122991966D01*
X118991966Y-122847219D01*
X118991968Y-122847215D01*
X118991971Y-122847213D01*
X119044732Y-122774590D01*
X119112287Y-122681610D01*
X119205220Y-122499219D01*
X119268477Y-122304534D01*
X119300500Y-122102352D01*
X119300500Y-121897648D01*
X119282109Y-121781533D01*
X119268477Y-121695465D01*
X119205218Y-121500776D01*
X119171503Y-121434607D01*
X119112287Y-121318390D01*
X119090743Y-121288737D01*
X118991971Y-121152786D01*
X118847213Y-121008028D01*
X118681613Y-120887715D01*
X118681612Y-120887714D01*
X118681610Y-120887713D01*
X118624653Y-120858691D01*
X118499223Y-120794781D01*
X118304534Y-120731522D01*
X118129995Y-120703878D01*
X118102352Y-120699500D01*
X117897648Y-120699500D01*
X117873329Y-120703351D01*
X117695465Y-120731522D01*
X117500776Y-120794781D01*
X117318386Y-120887715D01*
X117152786Y-121008028D01*
X117008028Y-121152786D01*
X116887715Y-121318386D01*
X116794781Y-121500776D01*
X116731522Y-121695465D01*
X116699500Y-121897648D01*
X109401896Y-121897648D01*
X109401896Y-116069897D01*
X109404298Y-116059057D01*
X109401896Y-116004173D01*
X109401896Y-115949220D01*
X109401895Y-115949219D01*
X109400835Y-115941163D01*
X109400925Y-115941151D01*
X109398427Y-115924929D01*
X109396798Y-115887715D01*
X109386291Y-115647648D01*
X111569500Y-115647648D01*
X111569500Y-115852351D01*
X111601522Y-116054534D01*
X111664781Y-116249223D01*
X111716385Y-116350500D01*
X111756704Y-116429630D01*
X111757715Y-116431613D01*
X111878028Y-116597213D01*
X112022786Y-116741971D01*
X112177749Y-116854556D01*
X112188390Y-116862287D01*
X112304607Y-116921503D01*
X112370776Y-116955218D01*
X112370778Y-116955218D01*
X112370781Y-116955220D01*
X112475137Y-116989127D01*
X112565465Y-117018477D01*
X112666557Y-117034488D01*
X112767648Y-117050500D01*
X112767649Y-117050500D01*
X112972351Y-117050500D01*
X112972352Y-117050500D01*
X113174534Y-117018477D01*
X113369219Y-116955220D01*
X113551610Y-116862287D01*
X113644590Y-116794732D01*
X113717213Y-116741971D01*
X113717215Y-116741968D01*
X113717219Y-116741966D01*
X113861966Y-116597219D01*
X113861968Y-116597215D01*
X113861971Y-116597213D01*
X113982284Y-116431614D01*
X113982285Y-116431613D01*
X113982287Y-116431610D01*
X113989117Y-116418204D01*
X114037091Y-116367409D01*
X114099602Y-116350500D01*
X116449903Y-116350500D01*
X116479343Y-116359144D01*
X116509330Y-116365668D01*
X116514345Y-116369422D01*
X116516942Y-116370185D01*
X116537584Y-116386819D01*
X116705922Y-116555157D01*
X116739407Y-116616480D01*
X116736173Y-116681155D01*
X116731522Y-116695468D01*
X116699500Y-116897648D01*
X116699500Y-117102351D01*
X116731522Y-117304534D01*
X116794781Y-117499223D01*
X116887715Y-117681613D01*
X117008028Y-117847213D01*
X117152786Y-117991971D01*
X117307749Y-118104556D01*
X117318390Y-118112287D01*
X117434607Y-118171503D01*
X117500776Y-118205218D01*
X117500778Y-118205218D01*
X117500781Y-118205220D01*
X117605137Y-118239127D01*
X117695465Y-118268477D01*
X117796557Y-118284488D01*
X117897648Y-118300500D01*
X117897649Y-118300500D01*
X118102351Y-118300500D01*
X118102352Y-118300500D01*
X118304534Y-118268477D01*
X118499219Y-118205220D01*
X118681610Y-118112287D01*
X118774590Y-118044732D01*
X118847213Y-117991971D01*
X118847215Y-117991968D01*
X118847219Y-117991966D01*
X118991966Y-117847219D01*
X118991968Y-117847215D01*
X118991971Y-117847213D01*
X119044732Y-117774590D01*
X119112287Y-117681610D01*
X119205220Y-117499219D01*
X119268477Y-117304534D01*
X119300500Y-117102352D01*
X119300500Y-116897648D01*
X124319500Y-116897648D01*
X124319500Y-117102351D01*
X124351522Y-117304534D01*
X124414781Y-117499223D01*
X124507715Y-117681613D01*
X124628028Y-117847213D01*
X124772786Y-117991971D01*
X124927749Y-118104556D01*
X124938390Y-118112287D01*
X125054607Y-118171503D01*
X125120776Y-118205218D01*
X125120778Y-118205218D01*
X125120781Y-118205220D01*
X125225137Y-118239127D01*
X125315465Y-118268477D01*
X125416557Y-118284488D01*
X125517648Y-118300500D01*
X125517649Y-118300500D01*
X125722351Y-118300500D01*
X125722352Y-118300500D01*
X125924534Y-118268477D01*
X126119219Y-118205220D01*
X126301610Y-118112287D01*
X126394590Y-118044732D01*
X126467213Y-117991971D01*
X126467215Y-117991968D01*
X126467219Y-117991966D01*
X126611966Y-117847219D01*
X126611968Y-117847215D01*
X126611971Y-117847213D01*
X126732284Y-117681614D01*
X126732285Y-117681613D01*
X126732287Y-117681610D01*
X126739117Y-117668204D01*
X126787091Y-117617409D01*
X126849602Y-117600500D01*
X129479739Y-117600500D01*
X129546778Y-117620185D01*
X129560950Y-117630795D01*
X129856711Y-117887121D01*
X129894480Y-117945902D01*
X129899500Y-117980826D01*
X129899500Y-118805500D01*
X129879815Y-118872539D01*
X129827011Y-118918294D01*
X129775500Y-118929500D01*
X129411441Y-118929500D01*
X129281351Y-118944157D01*
X129281341Y-118944159D01*
X129116395Y-119001877D01*
X128968423Y-119094853D01*
X128844853Y-119218423D01*
X128751877Y-119366395D01*
X128694159Y-119531341D01*
X128694157Y-119531351D01*
X128679500Y-119661441D01*
X128679500Y-120998558D01*
X128694157Y-121128648D01*
X128694158Y-121128655D01*
X128694159Y-121128657D01*
X128703041Y-121154041D01*
X128710000Y-121194994D01*
X128710000Y-121719670D01*
X128690255Y-121699925D01*
X128604745Y-121650556D01*
X128509370Y-121625000D01*
X128410630Y-121625000D01*
X128315255Y-121650556D01*
X128229745Y-121699925D01*
X128210000Y-121719670D01*
X128210000Y-121000000D01*
X128141469Y-121000000D01*
X128011460Y-121014648D01*
X127846613Y-121072330D01*
X127698737Y-121165246D01*
X127575246Y-121288737D01*
X127482330Y-121436613D01*
X127424648Y-121601460D01*
X127410000Y-121731469D01*
X127410000Y-122150000D01*
X128113590Y-122150000D01*
X128159925Y-122230255D01*
X128229745Y-122300075D01*
X128315255Y-122349444D01*
X128410630Y-122375000D01*
X128509370Y-122375000D01*
X128604745Y-122349444D01*
X128690255Y-122300075D01*
X128760075Y-122230255D01*
X128806410Y-122150000D01*
X129510000Y-122150000D01*
X129510000Y-121854500D01*
X129512550Y-121845814D01*
X129511262Y-121836853D01*
X129522240Y-121812812D01*
X129529685Y-121787461D01*
X129536525Y-121781533D01*
X129540287Y-121773297D01*
X129562521Y-121759007D01*
X129582489Y-121741706D01*
X129593003Y-121739418D01*
X129599065Y-121735523D01*
X129634000Y-121730500D01*
X129825500Y-121730500D01*
X129892539Y-121750185D01*
X129938294Y-121802989D01*
X129949500Y-121854500D01*
X129949500Y-123347870D01*
X129949501Y-123347876D01*
X129955908Y-123407483D01*
X130006202Y-123542328D01*
X130006206Y-123542335D01*
X130092452Y-123657544D01*
X130092455Y-123657547D01*
X130207664Y-123743793D01*
X130207671Y-123743797D01*
X130342517Y-123794091D01*
X130342516Y-123794091D01*
X130349444Y-123794835D01*
X130402127Y-123800500D01*
X131597872Y-123800499D01*
X131657483Y-123794091D01*
X131792331Y-123743796D01*
X131907546Y-123657546D01*
X131993796Y-123542331D01*
X132044091Y-123407483D01*
X132050500Y-123347873D01*
X132050499Y-121452128D01*
X132044091Y-121392517D01*
X132016443Y-121318390D01*
X131993797Y-121257671D01*
X131993793Y-121257664D01*
X131907547Y-121142455D01*
X131907544Y-121142452D01*
X131792335Y-121056206D01*
X131792328Y-121056202D01*
X131657482Y-121005908D01*
X131657483Y-121005908D01*
X131597883Y-120999501D01*
X131597881Y-120999500D01*
X131597873Y-120999500D01*
X131597865Y-120999500D01*
X130904500Y-120999500D01*
X130837461Y-120979815D01*
X130791706Y-120927011D01*
X130780500Y-120875500D01*
X130780500Y-120580097D01*
X130789143Y-120550659D01*
X130795667Y-120520671D01*
X130799422Y-120515654D01*
X130800185Y-120513058D01*
X130816818Y-120492417D01*
X130858503Y-120450731D01*
X130858508Y-120450727D01*
X130868714Y-120440520D01*
X130868716Y-120440520D01*
X130980520Y-120328716D01*
X131059577Y-120191784D01*
X131100500Y-120039057D01*
X131100500Y-117707371D01*
X131104607Y-117686073D01*
X131100500Y-117628573D01*
X131100500Y-117570943D01*
X131097954Y-117561441D01*
X131094043Y-117538178D01*
X131093342Y-117528360D01*
X131075939Y-117478061D01*
X131075939Y-117478060D01*
X131074490Y-117473873D01*
X131059577Y-117418216D01*
X131048734Y-117399436D01*
X131044860Y-117388239D01*
X131044858Y-117388235D01*
X131041640Y-117378934D01*
X131041639Y-117378932D01*
X131011815Y-117334861D01*
X131009338Y-117331200D01*
X130980520Y-117281284D01*
X130965182Y-117265946D01*
X130958542Y-117256133D01*
X130953033Y-117247991D01*
X130953031Y-117247989D01*
X130953029Y-117247986D01*
X130912821Y-117213139D01*
X130906350Y-117207114D01*
X130868719Y-117169482D01*
X130860186Y-117164555D01*
X130840981Y-117150877D01*
X130162817Y-116563136D01*
X130159479Y-116560243D01*
X130118716Y-116519480D01*
X130099929Y-116508633D01*
X130083543Y-116494432D01*
X130083541Y-116494430D01*
X130035678Y-116471175D01*
X130031704Y-116469244D01*
X129981784Y-116440423D01*
X129960835Y-116434809D01*
X129954251Y-116431610D01*
X129950178Y-116429631D01*
X129950177Y-116429630D01*
X129941325Y-116425330D01*
X129889065Y-116415251D01*
X129889065Y-116415252D01*
X129884717Y-116414413D01*
X129829057Y-116399500D01*
X129807373Y-116399500D01*
X129795741Y-116397257D01*
X129795740Y-116397257D01*
X129786073Y-116395392D01*
X129732984Y-116399185D01*
X129724150Y-116399500D01*
X126849602Y-116399500D01*
X126782563Y-116379815D01*
X126739117Y-116331795D01*
X126732284Y-116318385D01*
X126611971Y-116152786D01*
X126467213Y-116008028D01*
X126301613Y-115887715D01*
X126301612Y-115887714D01*
X126301610Y-115887713D01*
X126232208Y-115852351D01*
X126119223Y-115794781D01*
X125924534Y-115731522D01*
X125749995Y-115703878D01*
X125722352Y-115699500D01*
X125517648Y-115699500D01*
X125493329Y-115703351D01*
X125315465Y-115731522D01*
X125120776Y-115794781D01*
X124938386Y-115887715D01*
X124772786Y-116008028D01*
X124628028Y-116152786D01*
X124507715Y-116318386D01*
X124414781Y-116500776D01*
X124351522Y-116695465D01*
X124319500Y-116897648D01*
X119300500Y-116897648D01*
X119268477Y-116695466D01*
X119205220Y-116500781D01*
X119205218Y-116500778D01*
X119205218Y-116500776D01*
X119161215Y-116414416D01*
X119112287Y-116318390D01*
X119062032Y-116249219D01*
X118991971Y-116152786D01*
X118847213Y-116008028D01*
X118681613Y-115887715D01*
X118681612Y-115887714D01*
X118681610Y-115887713D01*
X118612208Y-115852351D01*
X118499223Y-115794781D01*
X118304534Y-115731522D01*
X118129995Y-115703878D01*
X118102352Y-115699500D01*
X117897648Y-115699500D01*
X117859599Y-115705526D01*
X117695468Y-115731522D01*
X117686717Y-115734365D01*
X117681154Y-115736173D01*
X117611313Y-115738167D01*
X117555157Y-115705922D01*
X117237590Y-115388355D01*
X117237588Y-115388352D01*
X117118717Y-115269481D01*
X117118716Y-115269480D01*
X117031904Y-115219360D01*
X117031904Y-115219359D01*
X117031900Y-115219358D01*
X116981785Y-115190423D01*
X116829057Y-115149499D01*
X116670943Y-115149499D01*
X116663347Y-115149499D01*
X116663331Y-115149500D01*
X114099602Y-115149500D01*
X114032563Y-115129815D01*
X113989117Y-115081795D01*
X113982284Y-115068385D01*
X113861971Y-114902786D01*
X113717213Y-114758028D01*
X113551613Y-114637715D01*
X113551612Y-114637714D01*
X113551610Y-114637713D01*
X113494653Y-114608691D01*
X113369223Y-114544781D01*
X113174534Y-114481522D01*
X112999995Y-114453878D01*
X112972352Y-114449500D01*
X112767648Y-114449500D01*
X112743329Y-114453351D01*
X112565465Y-114481522D01*
X112370776Y-114544781D01*
X112188386Y-114637715D01*
X112022786Y-114758028D01*
X111878028Y-114902786D01*
X111757715Y-115068386D01*
X111664781Y-115250776D01*
X111601522Y-115445465D01*
X111569500Y-115647648D01*
X109386291Y-115647648D01*
X109221082Y-111872719D01*
X109220963Y-111867297D01*
X109220963Y-108399983D01*
X121699500Y-108399983D01*
X121699500Y-109600001D01*
X121699501Y-109600018D01*
X121710000Y-109702796D01*
X121710001Y-109702799D01*
X121757856Y-109847213D01*
X121765186Y-109869334D01*
X121857288Y-110018656D01*
X121981344Y-110142712D01*
X122130666Y-110234814D01*
X122297203Y-110289999D01*
X122399991Y-110300500D01*
X123600008Y-110300499D01*
X123702797Y-110289999D01*
X123869334Y-110234814D01*
X124018656Y-110142712D01*
X124142712Y-110018656D01*
X124234814Y-109869334D01*
X124289999Y-109702797D01*
X124300500Y-109600009D01*
X124300499Y-108897648D01*
X126699500Y-108897648D01*
X126699500Y-109102351D01*
X126731522Y-109304534D01*
X126794781Y-109499223D01*
X126887715Y-109681613D01*
X127008028Y-109847213D01*
X127152786Y-109991971D01*
X127307749Y-110104556D01*
X127318390Y-110112287D01*
X127434607Y-110171503D01*
X127500776Y-110205218D01*
X127500778Y-110205218D01*
X127500781Y-110205220D01*
X127591856Y-110234812D01*
X127695465Y-110268477D01*
X127796557Y-110284488D01*
X127897648Y-110300500D01*
X127897649Y-110300500D01*
X128102351Y-110300500D01*
X128102352Y-110300500D01*
X128304534Y-110268477D01*
X128499219Y-110205220D01*
X128681610Y-110112287D01*
X128810482Y-110018657D01*
X128847213Y-109991971D01*
X128847215Y-109991968D01*
X128847219Y-109991966D01*
X128991966Y-109847219D01*
X128991968Y-109847215D01*
X128991971Y-109847213D01*
X129096892Y-109702799D01*
X129112287Y-109681610D01*
X129205220Y-109499219D01*
X129268477Y-109304534D01*
X129300500Y-109102352D01*
X129300500Y-108897648D01*
X129268477Y-108695466D01*
X129205220Y-108500781D01*
X129205218Y-108500778D01*
X129205218Y-108500776D01*
X129153865Y-108399991D01*
X129112287Y-108318390D01*
X129096892Y-108297200D01*
X128991971Y-108152786D01*
X128847213Y-108008028D01*
X128681613Y-107887715D01*
X128681612Y-107887714D01*
X128681610Y-107887713D01*
X128621898Y-107857288D01*
X128499223Y-107794781D01*
X128304534Y-107731522D01*
X128129995Y-107703878D01*
X128102352Y-107699500D01*
X127897648Y-107699500D01*
X127873329Y-107703351D01*
X127695465Y-107731522D01*
X127500776Y-107794781D01*
X127318386Y-107887715D01*
X127152786Y-108008028D01*
X127008028Y-108152786D01*
X126887715Y-108318386D01*
X126794781Y-108500776D01*
X126731522Y-108695465D01*
X126699500Y-108897648D01*
X124300499Y-108897648D01*
X124300499Y-108399992D01*
X124289999Y-108297203D01*
X124234814Y-108130666D01*
X124142712Y-107981344D01*
X124018656Y-107857288D01*
X123869334Y-107765186D01*
X123702797Y-107710001D01*
X123702795Y-107710000D01*
X123600010Y-107699500D01*
X122399998Y-107699500D01*
X122399981Y-107699501D01*
X122297203Y-107710000D01*
X122297200Y-107710001D01*
X122130668Y-107765185D01*
X122130663Y-107765187D01*
X121981342Y-107857289D01*
X121857289Y-107981342D01*
X121765187Y-108130663D01*
X121765186Y-108130666D01*
X121710001Y-108297203D01*
X121710001Y-108297204D01*
X121710000Y-108297204D01*
X121699500Y-108399983D01*
X109220963Y-108399983D01*
X109220963Y-95096648D01*
X109240648Y-95029609D01*
X109245625Y-95022433D01*
X110853132Y-92870763D01*
X110853214Y-92870699D01*
X110891547Y-92819344D01*
X110891548Y-92819343D01*
X110891549Y-92819342D01*
X110907476Y-92798022D01*
X110931941Y-92765277D01*
X110931941Y-92765274D01*
X110936741Y-92758851D01*
X110936998Y-92758453D01*
X112977418Y-90024937D01*
X112977786Y-90024647D01*
X113016548Y-89972515D01*
X113016679Y-89972341D01*
X113016679Y-89972340D01*
X113055967Y-89919708D01*
X113055967Y-89919705D01*
X113060115Y-89914150D01*
X113061247Y-89912402D01*
X113179041Y-89753985D01*
X113184829Y-89748715D01*
X113186921Y-89744426D01*
X113214164Y-89722001D01*
X113224182Y-89715916D01*
X113226412Y-89714596D01*
X113277534Y-89685082D01*
X113277539Y-89685076D01*
X113281986Y-89681665D01*
X113281987Y-89681663D01*
X113281992Y-89681660D01*
X113286362Y-89678148D01*
X113286367Y-89678146D01*
X113327145Y-89635510D01*
X113328986Y-89633628D01*
X113370720Y-89591896D01*
X113370726Y-89591885D01*
X113374139Y-89587439D01*
X113374142Y-89587434D01*
X113374144Y-89587431D01*
X113377449Y-89582917D01*
X113377457Y-89582910D01*
X113405786Y-89531217D01*
X113407127Y-89528835D01*
X113407514Y-89528165D01*
X113436612Y-89477768D01*
X113436615Y-89477754D01*
X113438753Y-89472595D01*
X113438765Y-89472564D01*
X113438768Y-89472558D01*
X113440790Y-89467352D01*
X113440794Y-89467345D01*
X113454791Y-89410031D01*
X113455459Y-89407428D01*
X113470720Y-89350474D01*
X113470720Y-89350461D01*
X113471453Y-89344898D01*
X113471457Y-89344868D01*
X113471459Y-89344847D01*
X113472062Y-89339325D01*
X113471967Y-89335078D01*
X113470751Y-89280408D01*
X113470720Y-89277649D01*
X113470720Y-89218350D01*
X113471550Y-89204025D01*
X113473068Y-89190973D01*
X113472040Y-89183982D01*
X113470720Y-89165939D01*
X113470720Y-84881947D01*
X117000000Y-84881947D01*
X117000000Y-85118052D01*
X117036934Y-85351247D01*
X117109897Y-85575802D01*
X117217087Y-85786174D01*
X117277338Y-85869104D01*
X117277340Y-85869105D01*
X117976212Y-85170233D01*
X117987482Y-85212292D01*
X118059890Y-85337708D01*
X118162292Y-85440110D01*
X118287708Y-85512518D01*
X118329765Y-85523787D01*
X117630893Y-86222658D01*
X117713828Y-86282914D01*
X117924197Y-86390102D01*
X118148752Y-86463065D01*
X118148751Y-86463065D01*
X118381948Y-86500000D01*
X118618052Y-86500000D01*
X118851247Y-86463065D01*
X119075802Y-86390102D01*
X119286163Y-86282918D01*
X119286169Y-86282914D01*
X119369104Y-86222658D01*
X119369105Y-86222658D01*
X118670233Y-85523787D01*
X118712292Y-85512518D01*
X118837708Y-85440110D01*
X118940110Y-85337708D01*
X119012518Y-85212292D01*
X119023787Y-85170234D01*
X119722658Y-85869105D01*
X119722658Y-85869104D01*
X119782914Y-85786169D01*
X119782918Y-85786163D01*
X119890102Y-85575802D01*
X119963065Y-85351247D01*
X120000000Y-85118052D01*
X120000000Y-84881947D01*
X123500000Y-84881947D01*
X123500000Y-85118052D01*
X123536934Y-85351247D01*
X123609897Y-85575802D01*
X123717087Y-85786174D01*
X123777338Y-85869104D01*
X123777340Y-85869105D01*
X124476212Y-85170233D01*
X124487482Y-85212292D01*
X124559890Y-85337708D01*
X124662292Y-85440110D01*
X124787708Y-85512518D01*
X124829765Y-85523787D01*
X124130893Y-86222658D01*
X124213828Y-86282914D01*
X124424197Y-86390102D01*
X124648752Y-86463065D01*
X124648751Y-86463065D01*
X124881948Y-86500000D01*
X125118052Y-86500000D01*
X125351247Y-86463065D01*
X125575802Y-86390102D01*
X125786163Y-86282918D01*
X125786169Y-86282914D01*
X125869104Y-86222658D01*
X125869105Y-86222658D01*
X125170233Y-85523787D01*
X125212292Y-85512518D01*
X125337708Y-85440110D01*
X125440110Y-85337708D01*
X125512518Y-85212292D01*
X125523787Y-85170234D01*
X126222658Y-85869105D01*
X126222658Y-85869104D01*
X126282914Y-85786169D01*
X126282918Y-85786163D01*
X126390102Y-85575802D01*
X126463065Y-85351247D01*
X126500000Y-85118052D01*
X126500000Y-84881947D01*
X126463065Y-84648752D01*
X126390102Y-84424197D01*
X126282914Y-84213828D01*
X126222658Y-84130894D01*
X126222658Y-84130893D01*
X125523787Y-84829765D01*
X125512518Y-84787708D01*
X125440110Y-84662292D01*
X125337708Y-84559890D01*
X125212292Y-84487482D01*
X125170234Y-84476212D01*
X125869105Y-83777340D01*
X125869104Y-83777338D01*
X125786174Y-83717087D01*
X125575802Y-83609897D01*
X125351247Y-83536934D01*
X125351248Y-83536934D01*
X125118052Y-83500000D01*
X124881948Y-83500000D01*
X124648752Y-83536934D01*
X124424197Y-83609897D01*
X124213830Y-83717084D01*
X124130894Y-83777340D01*
X124829766Y-84476212D01*
X124787708Y-84487482D01*
X124662292Y-84559890D01*
X124559890Y-84662292D01*
X124487482Y-84787708D01*
X124476212Y-84829766D01*
X123777340Y-84130894D01*
X123717084Y-84213830D01*
X123609897Y-84424197D01*
X123536934Y-84648752D01*
X123500000Y-84881947D01*
X120000000Y-84881947D01*
X119963065Y-84648752D01*
X119890102Y-84424197D01*
X119782914Y-84213828D01*
X119722658Y-84130894D01*
X119722658Y-84130893D01*
X119023787Y-84829765D01*
X119012518Y-84787708D01*
X118940110Y-84662292D01*
X118837708Y-84559890D01*
X118712292Y-84487482D01*
X118670234Y-84476212D01*
X119369105Y-83777340D01*
X119369104Y-83777339D01*
X119286174Y-83717087D01*
X119075802Y-83609897D01*
X118851247Y-83536934D01*
X118851248Y-83536934D01*
X118618052Y-83500000D01*
X118381948Y-83500000D01*
X118148752Y-83536934D01*
X117924197Y-83609897D01*
X117713830Y-83717084D01*
X117630894Y-83777340D01*
X118329766Y-84476212D01*
X118287708Y-84487482D01*
X118162292Y-84559890D01*
X118059890Y-84662292D01*
X117987482Y-84787708D01*
X117976212Y-84829766D01*
X117277340Y-84130894D01*
X117217084Y-84213830D01*
X117109897Y-84424197D01*
X117036934Y-84648752D01*
X117000000Y-84881947D01*
X113470720Y-84881947D01*
X113470720Y-80381902D01*
X116999500Y-80381902D01*
X116999500Y-80618097D01*
X117036446Y-80851368D01*
X117109433Y-81075996D01*
X117216657Y-81286433D01*
X117355483Y-81477510D01*
X117522490Y-81644517D01*
X117713567Y-81783343D01*
X117812991Y-81834002D01*
X117924003Y-81890566D01*
X117924005Y-81890566D01*
X117924008Y-81890568D01*
X118044412Y-81929689D01*
X118148631Y-81963553D01*
X118381903Y-82000500D01*
X118381908Y-82000500D01*
X118618097Y-82000500D01*
X118851368Y-81963553D01*
X119075992Y-81890568D01*
X119286433Y-81783343D01*
X119477510Y-81644517D01*
X119644517Y-81477510D01*
X119783343Y-81286433D01*
X119890568Y-81075992D01*
X119963553Y-80851368D01*
X120000500Y-80618097D01*
X120000500Y-80381902D01*
X123499500Y-80381902D01*
X123499500Y-80618097D01*
X123536446Y-80851368D01*
X123609433Y-81075996D01*
X123716657Y-81286433D01*
X123855483Y-81477510D01*
X124022490Y-81644517D01*
X124213567Y-81783343D01*
X124312991Y-81834002D01*
X124424003Y-81890566D01*
X124424005Y-81890566D01*
X124424008Y-81890568D01*
X124544412Y-81929689D01*
X124648631Y-81963553D01*
X124881903Y-82000500D01*
X124881908Y-82000500D01*
X125118097Y-82000500D01*
X125351368Y-81963553D01*
X125575992Y-81890568D01*
X125786433Y-81783343D01*
X125977510Y-81644517D01*
X126144517Y-81477510D01*
X126283343Y-81286433D01*
X126390568Y-81075992D01*
X126463553Y-80851368D01*
X126500500Y-80618097D01*
X126500500Y-80381902D01*
X126463553Y-80148631D01*
X126390566Y-79924003D01*
X126283342Y-79713566D01*
X126144517Y-79522490D01*
X125977510Y-79355483D01*
X125786433Y-79216657D01*
X125575996Y-79109433D01*
X125351368Y-79036446D01*
X125118097Y-78999500D01*
X125118092Y-78999500D01*
X124881908Y-78999500D01*
X124881903Y-78999500D01*
X124648631Y-79036446D01*
X124424003Y-79109433D01*
X124213566Y-79216657D01*
X124104550Y-79295862D01*
X124022490Y-79355483D01*
X124022488Y-79355485D01*
X124022487Y-79355485D01*
X123855485Y-79522487D01*
X123855485Y-79522488D01*
X123855483Y-79522490D01*
X123795862Y-79604550D01*
X123716657Y-79713566D01*
X123609433Y-79924003D01*
X123536446Y-80148631D01*
X123499500Y-80381902D01*
X120000500Y-80381902D01*
X119963553Y-80148631D01*
X119890566Y-79924003D01*
X119783342Y-79713566D01*
X119644517Y-79522490D01*
X119477510Y-79355483D01*
X119286433Y-79216657D01*
X119075996Y-79109433D01*
X118851368Y-79036446D01*
X118618097Y-78999500D01*
X118618092Y-78999500D01*
X118381908Y-78999500D01*
X118381903Y-78999500D01*
X118148631Y-79036446D01*
X117924003Y-79109433D01*
X117713566Y-79216657D01*
X117604550Y-79295862D01*
X117522490Y-79355483D01*
X117522488Y-79355485D01*
X117522487Y-79355485D01*
X117355485Y-79522487D01*
X117355485Y-79522488D01*
X117355483Y-79522490D01*
X117295862Y-79604550D01*
X117216657Y-79713566D01*
X117109433Y-79924003D01*
X117036446Y-80148631D01*
X116999500Y-80381902D01*
X113470720Y-80381902D01*
X113470720Y-75933520D01*
X113480272Y-75885796D01*
X113512991Y-75807332D01*
X113624659Y-75539540D01*
X113626510Y-75535325D01*
X113666393Y-75449057D01*
X113669183Y-75443408D01*
X113776460Y-75239401D01*
X113839504Y-75119510D01*
X113841149Y-75116486D01*
X114096723Y-74662243D01*
X114098161Y-74659757D01*
X114723587Y-73608683D01*
X115514847Y-72298919D01*
X115516953Y-72296848D01*
X115548864Y-72242611D01*
X115581462Y-72188653D01*
X115581462Y-72188652D01*
X115582000Y-72187762D01*
X115587688Y-72176626D01*
X115850529Y-71729902D01*
X116510855Y-70607612D01*
X116512424Y-70606043D01*
X116544257Y-70550843D01*
X116576560Y-70495942D01*
X116576560Y-70495938D01*
X116577911Y-70493644D01*
X116582131Y-70485169D01*
X117432274Y-69011010D01*
X117432284Y-69010990D01*
X117432716Y-69010243D01*
X117466260Y-68952144D01*
X117466293Y-68952020D01*
X117466354Y-68951915D01*
X117483291Y-68888581D01*
X117483321Y-68888531D01*
X117483306Y-68888527D01*
X117488131Y-68870515D01*
X117500368Y-68824850D01*
X117500368Y-68824847D01*
X117500370Y-68824840D01*
X117500400Y-68824606D01*
X117500401Y-68824604D01*
X117500368Y-68757698D01*
X117500368Y-67378711D01*
X120399500Y-67378711D01*
X120399500Y-67621288D01*
X120431161Y-67861785D01*
X120493947Y-68096104D01*
X120586773Y-68320205D01*
X120586776Y-68320212D01*
X120708064Y-68530289D01*
X120708066Y-68530292D01*
X120708067Y-68530293D01*
X120855733Y-68722736D01*
X120855739Y-68722743D01*
X121027256Y-68894260D01*
X121027263Y-68894266D01*
X121140321Y-68981018D01*
X121219711Y-69041936D01*
X121429788Y-69163224D01*
X121653900Y-69256054D01*
X121888211Y-69318838D01*
X122068586Y-69342584D01*
X122128711Y-69350500D01*
X122128712Y-69350500D01*
X122371289Y-69350500D01*
X122419388Y-69344167D01*
X122611789Y-69318838D01*
X122846100Y-69256054D01*
X123070212Y-69163224D01*
X123280289Y-69041936D01*
X123472738Y-68894265D01*
X123644265Y-68722738D01*
X123791936Y-68530289D01*
X123913224Y-68320212D01*
X124006054Y-68096100D01*
X124068838Y-67861789D01*
X124100500Y-67621288D01*
X124100500Y-67378712D01*
X124068838Y-67138211D01*
X124006054Y-66903900D01*
X123913224Y-66679788D01*
X123791936Y-66469711D01*
X123644265Y-66277262D01*
X123644260Y-66277256D01*
X123472743Y-66105739D01*
X123472736Y-66105733D01*
X123280293Y-65958067D01*
X123280292Y-65958066D01*
X123280289Y-65958064D01*
X123070212Y-65836776D01*
X123070205Y-65836773D01*
X122846104Y-65743947D01*
X122611785Y-65681161D01*
X122371289Y-65649500D01*
X122371288Y-65649500D01*
X122128712Y-65649500D01*
X122128711Y-65649500D01*
X121888214Y-65681161D01*
X121653895Y-65743947D01*
X121429794Y-65836773D01*
X121429785Y-65836777D01*
X121219706Y-65958067D01*
X121027263Y-66105733D01*
X121027256Y-66105739D01*
X120855739Y-66277256D01*
X120855733Y-66277263D01*
X120708067Y-66469706D01*
X120586777Y-66679785D01*
X120586773Y-66679794D01*
X120493947Y-66903895D01*
X120431161Y-67138214D01*
X120399500Y-67378711D01*
X117500368Y-67378711D01*
X117500368Y-66677349D01*
X117500368Y-65014804D01*
X117520053Y-64947765D01*
X117543679Y-64920648D01*
X119112420Y-63576373D01*
X120867844Y-62072367D01*
X120884742Y-62062612D01*
X120917707Y-62029646D01*
X120953107Y-61999317D01*
X120957639Y-61992699D01*
X120972258Y-61975095D01*
X120977928Y-61969426D01*
X120998853Y-61933182D01*
X121003929Y-61925123D01*
X121027582Y-61890594D01*
X121034066Y-61872192D01*
X121043820Y-61855298D01*
X121055885Y-61810269D01*
X121071378Y-61766301D01*
X121072878Y-61746848D01*
X121077928Y-61728004D01*
X121077928Y-61681392D01*
X121081514Y-61634907D01*
X121080040Y-61627021D01*
X121077928Y-61604234D01*
X121077928Y-59421293D01*
X121097613Y-59354254D01*
X121150417Y-59308499D01*
X121201928Y-59297293D01*
X121358830Y-59297293D01*
X121358832Y-59297293D01*
X121486126Y-59263185D01*
X121600254Y-59197293D01*
X121693440Y-59104107D01*
X121759332Y-58989979D01*
X121793440Y-58862685D01*
X121793440Y-56966719D01*
X121793440Y-55892929D01*
X121813125Y-55825890D01*
X121865929Y-55780135D01*
X121917440Y-55768929D01*
X122300316Y-55768929D01*
X122814976Y-55768929D01*
X122882015Y-55788614D01*
G37*
%TD.AperFunction*%
%TD*%
M02*
