M48
; DRILL file {KiCad 9.0.2} date 2025-07-02T03:30:25+0300
; FORMAT={-:-/ absolute / metric / decimal}
; #@! TF.CreationDate,2025-07-02T03:30:25+03:00
; #@! TF.GenerationSoftware,Kicad,Pcbnew,9.0.2
; #@! TF.FileFunction,Plated,1,2,PTH
FMAT,2
METRIC
; #@! TA.AperFunction,Plated,PTH,ViaDrill
T1C0.300
; #@! TA.AperFunction,Plated,PTH,ComponentDrill
T2C0.750
; #@! TA.AperFunction,Plated,PTH,ComponentDrill
T3C0.800
; #@! TA.AperFunction,Plated,PTH,ComponentDrill
T4C0.900
; #@! TA.AperFunction,Plated,PTH,ComponentDrill
T5C1.100
%
G90
G05
T1
X132.0Y-125.0
T2
X128.46Y-122.0
X128.46Y-136.0
X129.73Y-120.73
X129.73Y-134.73
X131.0Y-122.0
X131.0Y-136.0
T3
X112.87Y-115.75
X112.87Y-123.37
X117.0Y-129.0
X118.0Y-117.0
X118.0Y-122.0
X121.0Y-132.403
X121.0Y-137.403
X123.0Y-109.0
X124.62Y-129.0
X125.62Y-117.0
X125.62Y-122.0
X128.0Y-109.0
T4
X116.46Y-150.0
X119.0Y-150.0
X126.46Y-150.0
X129.0Y-150.0
T5
X118.5Y-80.5
X118.5Y-85.0
X125.0Y-80.5
X125.0Y-85.0
M30
